<svg width="100" height="100" viewBox="0 0 100 100" fill="none" xmlns="http://www.w3.org/2000/svg">
<path fill-rule="evenodd" clip-rule="evenodd" d="M26.501 0.052196C24.9903 0.196067 22.382 0.7523 20.7464 1.27955C15.7054 2.90436 11.8505 5.32099 8.16957 9.16369C4.15942 13.3504 1.7147 17.9895 0.45176 23.8094C0.00207024 25.8815 0 25.9974 0 49.9039C0 72.1532 0.0273293 74.0537 0.370808 75.78C1.52567 81.5814 4.1588 86.6773 8.14928 90.8343C12.4733 95.3388 17.5199 98.1487 23.7706 99.533L25.8799 100H50H74.1201L76.212 99.5365C82.0778 98.2367 86.7251 95.7942 90.8329 91.8519C95.3381 87.5285 98.1485 82.4827 99.5329 76.2329L100 74.1239V50.1109C100 27.6953 99.9749 25.9745 99.6228 24.2422C97.7085 14.8277 91.8555 7.12838 83.4369 2.95032C81.2219 1.8511 78.9789 1.07461 76.294 0.477392C74.3609 0.047435 73.9251 0.0395682 50.8282 0.00665379C37.9037 -0.011563 26.9565 0.00893114 26.501 0.052196ZM75.8799 5.026C80.9151 6.27447 85.0698 8.64865 88.5226 12.2506C91.8754 15.7484 94.0104 19.7642 95.0592 24.5453C95.4232 26.2051 95.4451 27.6444 95.4451 49.9039C95.4451 69.1884 95.3925 73.7678 95.158 74.9519C93.1536 85.0695 85.5315 92.8524 75.4658 95.0599C73.8058 95.4239 72.3663 95.4458 50.1035 95.4458C24.5265 95.4458 25.4977 95.4853 21.8124 94.2921C13.3147 91.5406 6.89524 84.3789 4.94079 75.4695C4.57681 73.8094 4.55487 72.3678 4.55487 50.0074C4.55487 27.6469 4.57681 26.2053 4.94079 24.5453C5.42422 22.3419 6.13064 20.3612 7.19296 18.2315C10.6116 11.3774 17.7317 6.08775 25.1553 4.88647C26.0093 4.74819 26.8478 4.60618 27.0186 4.57079C27.1894 4.53559 37.8571 4.52524 50.7246 4.54822C73.753 4.589 74.1476 4.59645 75.8799 5.026ZM75.5694 18.517C73.9052 19.2802 72.7834 20.9574 72.7834 22.6822C72.7834 25.8542 76.2549 28.1474 79.089 26.8474C80.7253 26.097 81.8708 24.4138 81.8795 22.7474C81.8965 19.5158 78.4416 17.1996 75.5694 18.517ZM47.5155 25.0543C47.3447 25.0955 46.5062 25.2421 45.6522 25.3803C43.4743 25.7327 40.7623 26.6551 38.5596 27.7926C31.8818 31.2412 27.047 37.599 25.4449 45.0392C24.9718 47.2355 24.9147 52.317 25.3389 54.4581C27.3795 64.7588 35.2464 72.6245 45.5487 74.6648C47.6901 75.089 52.7723 75.0318 54.9689 74.5588C63.8182 72.6539 71.0468 66.1795 73.7938 57.6986C74.7058 54.883 74.9482 53.2678 74.9482 50.0074C74.9482 48.283 74.8261 46.3891 74.6611 45.5567C72.6513 35.4122 65.0418 27.6591 54.9354 25.4584C53.5613 25.1593 48.2768 24.8715 47.5155 25.0543ZM53.3373 29.8174C60.8472 31.1323 66.9528 36.3299 69.3946 43.4866C72.5936 52.8616 68.4654 63.2773 59.671 68.02C51.9025 72.2099 42.4797 70.9705 36.0524 64.9139C29.199 58.4556 27.5582 48.5428 31.9847 40.3378C36.1393 32.6362 44.8698 28.3346 53.3373 29.8174Z" fill="#183429"/>
</svg>
