<svg width="198" height="88" viewBox="0 0 198 88" fill="none" xmlns="http://www.w3.org/2000/svg">
<g opacity="0.8">
<path fill-rule="evenodd" clip-rule="evenodd" d="M0 66V85H31H62V66V47H31H0V66ZM39.9312 59.464C39.3987 59.9606 38.2629 59.7072 38.2629 59.0916C38.2629 58.8748 38.452 58.5209 38.683 58.3055C39.0072 58.0031 39.2527 58.0395 39.7569 58.4651C40.3067 58.929 40.3344 59.088 39.9312 59.464ZM16.1448 60.9295L18.0757 62.6325L16.9207 63.2802C16.2855 63.6364 15.241 64.4565 14.5994 65.1032L13.4331 66.2786L11.7651 64.7701C10.8479 63.9404 9.72018 63.1559 9.25961 63.0271C8.44936 62.8001 8.48337 62.7346 10.3104 61.0094C12.8007 58.6574 13.5575 58.6472 16.1448 60.9295ZM34.703 61.6891C35.7134 62.5919 35.7829 62.809 35.7829 65.0652C35.7829 67.249 35.6876 67.5758 34.7739 68.5295C33.8162 69.5294 33.6097 69.5905 30.6996 69.7329C28.7418 69.8287 27.6343 69.7607 27.6343 69.5449C27.6343 69.3503 28.9079 69.1576 30.6361 69.0906C34.6785 68.9336 35.2514 68.4426 35.2514 65.1362C35.2514 62.9901 35.1721 62.7399 34.2573 62.006C33.4311 61.3435 32.8816 61.2087 31.0032 61.2087C28.3099 61.2087 27.1312 61.5725 26.5045 62.5972C26.1998 63.0955 25.972 65.2307 25.8427 68.8087L25.645 74.2609L25.5769 68.6055C25.5125 63.2772 25.5525 62.8982 26.266 62.052C27.3328 60.7871 28.1604 60.5439 31.0716 60.64C33.3461 60.715 33.7404 60.829 34.703 61.6891ZM38.9714 61.2087C39.5975 61.7926 39.68 62.31 39.68 65.6501C39.68 67.8141 39.5284 69.5178 39.3257 69.6348C39.0972 69.7666 38.9714 68.4485 38.9714 65.9204C38.9714 61.6581 38.7936 61.2087 37.1082 61.2087C36.5233 61.2087 36.1878 61.0693 36.3143 60.8783C36.6842 60.3202 38.2239 60.5115 38.9714 61.2087ZM46.444 62.7257C48.6441 64.7562 48.9035 64.7807 50.2576 63.0852C51.6304 61.3666 55.6229 59.7241 55.6229 60.8783C55.6229 61.06 55.1407 61.2087 54.5511 61.2087C53.7324 61.2087 52.9455 61.672 51.2194 63.1695L48.9598 65.1303L51.1978 67.1347C52.9675 68.7198 53.669 69.1391 54.5501 69.1391C55.2441 69.1391 55.5772 69.2713 55.433 69.4891C54.943 70.2286 52.9423 69.3837 51.0069 67.6198C49.9295 66.6381 48.8879 65.8348 48.692 65.8348C48.496 65.8348 47.4835 66.6397 46.4419 67.6234C44.5539 69.4065 42.7031 70.1674 41.7111 69.5684C41.4344 69.4012 41.7419 69.2439 42.5497 69.1391C43.4769 69.0192 44.4483 68.4396 46.1067 67.0171L48.3883 65.0606L46.1687 63.1345C44.3343 61.5428 43.7327 61.2087 42.7003 61.2087C42.0069 61.2087 41.4514 61.0425 41.4514 60.8346C41.4514 60.5871 41.9471 60.5227 42.9196 60.6446C44.1047 60.7927 44.7849 61.1945 46.444 62.7257ZM10.8224 64.8696C13.0905 67.0524 13.1801 67.0587 15.4043 65.1802C17.8319 63.1295 18.617 63.076 20.3303 64.8445C22.0114 66.5799 22.0043 67.5795 20.2995 69.2079C18.5189 70.9086 17.5751 70.8617 15.5886 68.9739C14.728 68.1561 13.7583 67.487 13.4335 67.487C13.1086 67.487 12.0943 68.1561 11.1791 68.9739C9.00771 70.9146 7.66497 70.9982 6.0597 69.2928C4.51856 67.6558 4.57773 66.3929 6.27192 64.7747C8.01819 63.1067 9.01232 63.1275 10.8224 64.8696ZM15.2708 69.6348C16.2082 70.4526 17.2551 71.1217 17.5974 71.1217C18.3336 71.1217 15.1422 74.3299 13.9961 74.742C12.8932 75.1385 11.6121 74.5437 9.7301 72.762C8.19746 71.3107 8.09082 71.1217 8.80258 71.1217C9.27166 71.1217 10.2998 70.5051 11.2691 69.6424C12.1835 68.8289 13.0742 68.1597 13.2489 68.1554C13.4235 68.1511 14.3333 68.817 15.2708 69.6348ZM41.7774 73.0217C41.9761 73.3399 42.1433 73.4345 42.1494 73.2322C42.165 72.6982 46.8391 72.8132 47.0314 73.3522C47.1331 73.6367 46.7381 73.7652 45.762 73.7652C44.9744 73.7652 44.2528 73.5815 44.138 73.3522C43.9729 73.0217 43.89 73.0217 43.7249 73.3522C43.6051 73.5911 42.8587 73.7652 41.9535 73.7652C40.6249 73.7652 40.3886 73.6654 40.3886 73.1043C40.3886 72.2898 41.2867 72.2363 41.7774 73.0217ZM48.5474 72.761C48.2608 72.9302 48.1485 73.1823 48.2976 73.3218C48.4472 73.4609 48.8787 73.3948 49.2571 73.1744C50.1488 72.655 50.3086 72.6695 50.3086 73.2696C50.3086 73.6159 49.9344 73.7652 49.0686 73.7652C48.2714 73.7652 47.8286 73.6079 47.8286 73.3247C47.8286 72.7894 48.1683 72.4418 48.6849 72.4484C48.8957 72.4514 48.834 72.5918 48.5474 72.761ZM55.6229 73.0323C55.6229 73.4219 55.3231 73.6443 54.7371 73.6895C54.1299 73.7365 53.8514 73.5911 53.8514 73.2273C53.8514 72.8595 54.0686 72.7498 54.56 72.8697C54.9497 72.9646 55.2686 72.9077 55.2686 72.7429C55.2686 72.5783 55.3483 72.4435 55.4457 72.4435C55.5431 72.4435 55.6229 72.7085 55.6229 73.0323ZM28.8591 73.0815C28.9714 73.2507 28.9274 73.4672 28.762 73.5627C28.5965 73.6582 28.4608 73.5197 28.4608 73.255C28.4608 72.6979 28.5728 72.6493 28.8591 73.0815ZM35.3021 73.2068C35.4268 73.3231 34.9733 73.3988 34.2945 73.375C33.6153 73.3512 32.8756 73.4381 32.6499 73.5679C32.4132 73.7044 32.24 73.6066 32.24 73.337C32.24 73.0016 32.64 72.8873 33.6579 72.9325C34.4376 72.9669 35.1774 73.0905 35.3021 73.2068ZM38.4375 73.1007C38.5615 73.2877 38.4195 73.3433 38.1041 73.2306C37.4905 73.0108 37.3782 72.7739 37.8877 72.7739C38.0712 72.7739 38.3185 72.921 38.4375 73.1007ZM51.7204 73.3522C51.7161 73.8049 51.6485 73.8326 51.409 73.4801C51.1507 73.0997 51.0731 73.0997 50.9109 73.4801C50.7769 73.794 50.7103 73.7553 50.6908 73.3522C50.6756 73.034 50.902 72.7739 51.1943 72.7739C51.4866 72.7739 51.7232 73.034 51.7204 73.3522ZM53.4086 73.187C53.1854 73.8121 52.08 73.901 52.08 73.2937C52.08 72.9874 52.3829 72.7739 52.818 72.7739C53.2509 72.7739 53.4954 72.9447 53.4086 73.187ZM31.62 73.3231C31.3766 73.415 30.978 73.415 30.7343 73.3231C30.4909 73.2316 30.69 73.1566 31.1771 73.1566C31.6643 73.1566 31.8637 73.2316 31.62 73.3231Z" fill="white"/>
</g>
<g opacity="0.8">
<path fill-rule="evenodd" clip-rule="evenodd" d="M136 19V38H167H198V19V0H167H136V19ZM157.574 12.8542C159.214 13.6076 160.592 14.9528 161.298 16.4884C161.875 17.741 161.78 17.8524 159.968 18.0602C158.704 18.2053 158.501 18.1217 157.955 17.2348C157.095 15.8371 155.65 15.09 153.804 15.09C152.297 15.09 152.202 15.0315 151.815 13.8674C151.293 12.2988 151.292 12.3051 152.05 12.1055C153.235 11.7932 156.114 12.1835 157.574 12.8542ZM149.587 14.939C150.569 15.9987 150.569 16.0013 149.89 17.0042C149.001 18.317 149.02 20.3898 149.932 21.6359L150.652 22.6199L149.677 23.5359C148.508 24.6352 148.104 24.6633 147.35 23.6985C145.506 21.3365 145.402 17.5729 147.117 15.2387C147.667 14.4902 148.226 13.8783 148.36 13.8783C148.494 13.8783 149.046 14.3557 149.587 14.939ZM176.722 18.1574C176.722 21.8457 176.808 22.4801 177.347 22.7518C177.881 23.0211 177.907 23.1959 177.525 23.9522L177.077 24.8371L175.891 24.2136L174.704 23.5901L174.603 18.734L174.501 13.8783H175.611H176.722V18.1574ZM172.229 17.3237C172.91 17.9935 173.412 18.6924 173.343 18.8774C173.179 19.3199 164.682 22.6397 164.389 22.3757C164.264 22.2637 164.081 21.5199 163.981 20.7232C163.616 17.8068 165.906 15.7102 169.178 15.9653C170.698 16.0836 171.19 16.3023 172.229 17.3237ZM185.624 16.4679C186.874 17.2104 187.701 18.1637 187.716 18.8817C187.73 19.5413 185.804 20.0805 185.582 19.4791C185.286 18.6791 184.035 17.8435 183.133 17.8435C182.476 17.8435 182.103 17.597 181.849 16.9959C181.354 15.8232 181.314 15.8605 183.05 15.8632C183.94 15.8642 185.045 16.1239 185.624 16.4679ZM180.578 17.6376C181.051 18.2873 181.072 18.577 180.699 19.3133C180.351 20.0025 180.347 20.4351 180.681 21.2334C181.042 22.0958 181.015 22.3612 180.511 22.8625C180.181 23.1916 179.806 23.4609 179.679 23.4609C179.133 23.4609 178.189 21.4379 178.191 20.2709C178.192 19.1712 179.301 16.8522 179.826 16.8522C179.926 16.8522 180.264 17.2057 180.578 17.6376ZM166.838 18.4849C166.124 19.1285 165.766 20.3379 166.36 20.1013C166.512 20.0409 167.426 19.7091 168.39 19.3638C170.336 18.6676 170.479 18.0626 168.736 17.9066C167.961 17.8372 167.351 18.0232 166.838 18.4849ZM160.855 20.4823C162.034 20.4889 161.913 21.4237 160.488 23.3221C158.87 25.4772 156.793 26.4348 153.735 26.4348C151.198 26.4348 151.1 26.3373 151.811 24.5014C152.173 23.5663 152.364 23.4609 153.694 23.4609C155.549 23.4609 157.411 22.454 158.025 21.1197C158.391 20.3231 158.656 20.1456 159.26 20.292C159.683 20.3941 160.401 20.48 160.855 20.4823ZM187.308 21.1115C188.536 21.8123 186.156 24.2539 183.868 24.6405C182.029 24.9511 181.488 24.6772 181.808 23.598C182.01 22.9203 182.334 22.681 183.158 22.6041C183.773 22.5466 184.56 22.1467 184.976 21.6808C185.748 20.8164 186.479 20.638 187.308 21.1115ZM172.158 22.3037C172.853 22.7868 172.846 22.8182 171.859 23.6106C170.586 24.6342 168.618 24.9871 167.177 24.4499C165.948 23.9912 165.899 23.8716 166.606 23.0326C166.959 22.6133 167.375 22.5003 168.025 22.6473C168.573 22.7713 169.368 22.6487 169.99 22.3453C171.299 21.7063 171.299 21.7063 172.158 22.3037Z" fill="white"/>
</g>
<g opacity="0.8">
<path fill-rule="evenodd" clip-rule="evenodd" d="M82.3856 1.49607C74.0508 3.37184 68 11.0603 68 19.7747C68 28.1772 72.6948 35.1536 80.2576 37.9895C83.1952 39.0913 88.8453 39.1781 91.726 38.1658C93.9547 37.3827 97.5662 35.2982 97.5662 34.7945C97.5662 34.6167 96.9865 33.7705 96.2781 32.9146C94.9585 31.3197 92.821 27.268 92.821 26.3614C92.821 26.0832 93.1272 25.8555 93.5014 25.8555C93.9723 25.8555 94.3763 26.3818 94.8122 27.5629C95.1589 28.5019 96.189 30.2972 97.1012 31.5523L98.7594 33.8343L99.9899 32.6004C100.667 31.9219 101.835 30.1273 102.587 28.6129C103.525 26.7239 104.162 25.8581 104.617 25.857C105.137 25.8559 105.226 26.039 105.026 26.705C104.526 28.3777 103.075 31.0301 101.617 32.9368L100.136 34.8764L101.205 35.664C111.99 43.6081 127.731 36.5751 129.777 22.8972C132.158 6.98709 114.957 -4.67987 101.899 3.98766L100.15 5.1487L101.625 7.07884C103.075 8.97727 104.526 11.6308 105.026 13.3012C105.228 13.9759 105.138 14.1508 104.588 14.1508C104.111 14.1508 103.623 13.5421 103.013 12.1844C101.973 9.86985 99.5661 6.5914 98.9266 6.61745C98.2174 6.64614 95.8134 9.99521 94.9417 12.1685C94.3957 13.53 93.939 14.1508 93.4839 14.1508C93.1192 14.1508 92.821 13.9231 92.821 13.6448C92.821 12.7277 94.9655 8.67824 96.3149 7.0475C97.4352 5.69391 97.5669 5.35598 97.1683 4.85948C96.3605 3.85287 92.4724 2.03297 89.9454 1.4787C87.0122 0.835694 85.3024 0.83947 82.3856 1.49607ZM93.6405 16.605C93.5386 17.1559 93.6357 17.5489 93.8733 17.5489C94.5358 17.5489 94.3384 18.6231 93.601 19.0316C92.6458 19.5602 92.2669 22.1164 93.0535 22.7224C93.378 22.9723 93.5452 23.4386 93.4258 23.7607C93.1309 24.5555 91.0445 24.5381 90.7481 23.7384C90.6243 23.405 90.8211 21.4511 91.1857 19.3964C91.8303 15.7615 91.8745 15.661 92.8316 15.661C93.6835 15.661 93.7916 15.7872 93.6405 16.605ZM110.795 16.184C111.398 16.6578 111.397 16.7141 110.781 17.2906C110.405 17.6429 109.809 17.8102 109.362 17.6894C108.281 17.3971 107.237 18.076 106.698 19.4202C106.077 20.9708 106.95 22.4573 108.482 22.4573C109.209 22.4573 109.583 22.6801 109.712 23.1906C109.961 24.1764 109.729 24.3452 108.121 24.3452C106.244 24.3452 105.658 24.0533 105.035 22.8077C103.971 20.6778 104.6 18.0367 106.551 16.4494C107.656 15.5504 109.816 15.4152 110.795 16.184ZM128.227 16.133C128.227 16.602 127.307 21.8925 126.951 23.4723C126.783 24.2168 126.532 24.298 124.398 24.298C122.387 24.298 121.949 24.1757 121.479 23.4824C120.763 22.4249 120.778 20.8202 121.518 19.2064C122.162 17.8026 123.226 17.3261 124.93 17.6784C125.871 17.8732 126.011 17.7754 126.223 16.779C126.406 15.9155 126.662 15.661 127.344 15.661C127.83 15.661 128.227 15.8736 128.227 16.133ZM74.283 18.3984L74.3958 20.7583L75.4868 18.4109C76.5687 16.0832 76.5906 16.0635 78.1292 16.0511C78.9822 16.0443 79.6805 16.0813 79.6805 16.1338C79.6805 16.1862 79.352 18.0122 78.9504 20.1919C78.5489 22.3716 78.2204 24.1976 78.2204 24.25C78.2204 24.3025 77.7886 24.3452 77.2612 24.3452C76.2333 24.3452 76.2311 24.3184 76.9626 20.1919C77.0546 19.6727 76.6125 20.3947 75.9803 21.7966C75.0608 23.8355 74.6666 24.3452 74.0096 24.3452C73.0014 24.3452 72.7452 23.7113 72.7452 21.2181C72.7452 18.7805 72.1926 19.2706 71.7739 22.0798C71.4881 23.999 71.3848 24.1658 70.412 24.281C69.6561 24.3701 69.4108 24.264 69.5411 23.9034C69.6407 23.6271 70.0218 21.7445 70.3883 19.7199L71.0541 16.0386H72.6123H74.1706L74.283 18.3984ZM84.798 18.1243C85.2542 18.6929 85.1031 23.1392 84.599 23.9831C84.48 24.1821 83.3303 24.3452 82.0443 24.3452C80.0459 24.3452 79.6469 24.2304 79.2976 23.5557C78.4208 21.8608 80.2572 19.8143 82.655 19.8143C83.0266 19.8143 83.3306 19.6444 83.3306 19.4368C83.3306 19.2291 82.5915 19.0592 81.6881 19.0592C80.2889 19.0592 80.0455 18.9474 80.0455 18.304C80.0455 17.6346 80.2889 17.5489 82.191 17.5489C83.6675 17.5489 84.48 17.7283 84.798 18.1243ZM90.6309 17.7067C90.6309 18.5132 90.0257 19.0592 89.1318 19.0592C87.7791 19.0592 87.7918 19.5538 89.1709 20.5695C90.3973 21.4726 90.5776 22.6076 89.6618 23.6546C88.7985 24.6412 85.0433 24.6665 85.2232 23.6844C85.3116 23.2023 85.7634 22.9924 86.8928 22.9078C87.744 22.8436 88.4408 22.648 88.4408 22.4728C88.4408 22.2976 87.8659 21.8034 87.1633 21.3748C84.7626 19.9095 85.8109 17.5489 88.8624 17.5489C89.8352 17.5489 90.6309 17.6199 90.6309 17.7067ZM99.5935 18.4709C99.9147 18.978 100.124 19.7853 100.058 20.2644C99.9516 21.0433 99.7158 21.1479 97.84 21.2491C96.6858 21.3114 95.7411 21.4251 95.7411 21.5013C95.7411 22.4649 96.3503 22.8349 97.936 22.8349C99.5081 22.8349 99.6683 22.9123 99.4971 23.5901C99.3365 24.2255 98.9992 24.3452 97.3676 24.3452C95.7083 24.3452 95.3203 24.2021 94.6727 23.3503C93.7773 22.1734 93.7116 20.941 94.4636 19.4368C95.1626 18.0386 95.9503 17.5746 97.649 17.5602C98.6959 17.5515 99.1441 17.7615 99.5935 18.4709ZM104.501 18.2346C104.501 18.5215 104.033 19.2087 103.461 19.7619C102.728 20.4698 102.344 21.2963 102.161 22.5563C101.93 24.1519 101.801 24.3452 100.971 24.3452C99.945 24.3452 99.9472 24.486 100.889 19.5402L101.265 17.5674L102.883 17.6403C103.982 17.6897 104.501 17.8804 104.501 18.2346ZM115.841 17.9397C116.665 18.3958 116.77 20.0718 116.139 22.6676L115.73 24.3452H113.474C111.044 24.3452 110.342 23.9472 110.342 22.5706C110.342 21.3295 111.557 20.2414 113.257 19.9601C115.231 19.6335 115.118 19.0592 113.079 19.0592C111.68 19.0592 111.437 18.9474 111.437 18.304C111.437 17.6482 111.68 17.5489 113.286 17.5489C114.303 17.5489 115.453 17.7249 115.841 17.9397ZM121.292 18.0122C121.292 18.1961 120.817 18.8043 120.236 19.3635C119.655 19.9231 119.068 20.9754 118.932 21.7022C118.472 24.1398 118.353 24.3452 117.395 24.3452C116.617 24.3452 116.5 24.2085 116.669 23.4957C116.779 23.0286 117.07 21.5096 117.315 20.1202L117.76 17.5946L119.526 17.6361C120.498 17.6592 121.292 17.8283 121.292 18.0122ZM96.5547 19.1238C95.8302 19.8732 96.0313 20.1919 97.2278 20.1919C98.0969 20.1919 98.3221 20.0439 98.2276 19.5353C98.0768 18.7258 97.1581 18.4996 96.5547 19.1238ZM123.292 19.9616C122.569 21.1034 122.876 22.4573 123.859 22.4573C125.239 22.4573 125.838 19.3964 124.509 19.1343C124.164 19.0664 123.629 19.4296 123.292 19.9616ZM81.1442 21.8864C80.7792 22.3414 80.8051 22.4928 81.2818 22.682C82.0925 23.0037 82.9656 22.5997 82.9656 21.9027C82.9656 21.1626 81.7337 21.1517 81.1442 21.8864ZM112.605 21.7777C111.932 22.4739 112.08 22.8349 113.04 22.8349C113.763 22.8349 114.357 22.2244 114.357 21.4824C114.357 21.1294 113.013 21.356 112.605 21.7777Z" fill="white"/>
</g>
<g opacity="0.8">
<path fill-rule="evenodd" clip-rule="evenodd" d="M0 20.0001V39H31.0001H62L61.9437 20.0563L61.8873 1.11266L30.9436 1.05644L0 1V20.0001ZM40.5303 12.1193C42.2296 12.4875 42.2493 12.5162 41.9673 14.2288C41.8325 15.0483 41.6785 15.7629 41.6249 15.8167C41.5713 15.8707 41.0179 15.747 40.3953 15.5418C38.3502 14.8683 35.963 15.4123 35.963 16.5523C35.963 17.0607 36.7085 17.7018 38.2796 18.5444C40.0348 19.4855 41.376 20.931 41.558 22.0771C41.9207 24.3624 40.7201 26.4418 38.4173 27.5162C37.5418 27.9247 36.9905 27.9929 34.5289 27.9964C31.166 28.0011 30.2189 27.7385 30.2398 26.8069C30.2583 25.9805 30.5747 24.1315 30.723 23.9822C30.7914 23.9131 31.1446 24.0115 31.5078 24.2006C31.8709 24.3899 32.8483 24.6553 33.6795 24.7908C35.4902 25.0857 36.7864 24.7632 37.2065 23.9133C37.6058 23.1053 37.1875 22.4611 35.7693 21.6996C32.9397 20.1801 31.771 18.8397 31.771 17.1138C31.771 13.6235 36.0945 11.1585 40.5303 12.1193ZM15.0294 17.2869C15.5903 20.0719 16.1017 22.4038 16.1664 22.4687C16.2308 22.5338 16.4808 22.0549 16.7217 21.4049C16.9624 20.755 17.7838 18.5231 18.547 16.4454C19.3101 14.3677 20.0285 12.5429 20.1433 12.39C20.4027 12.0451 24.2695 11.9955 24.2695 12.3373C24.2695 12.4609 23.6094 14.1859 22.8028 16.1705C21.9959 18.1549 20.6158 21.5785 19.7357 23.7784L18.1357 27.7782L15.9248 27.8413C13.9589 27.8976 13.7019 27.8605 13.6066 27.508C13.5477 27.29 12.8262 24.5306 12.003 21.3761L10.5067 15.6403L8.39747 14.0775C7.23717 13.2179 6.25403 12.4218 6.21277 12.3082C6.16777 12.1847 7.7166 12.1262 10.0738 12.1627L14.0101 12.2233L15.0294 17.2869ZM30.0059 12.4478C30.0059 12.7864 28.2396 23.9291 27.7782 26.5005L27.5291 27.8893H25.5476H23.5661L23.7241 26.7227C24.1056 23.9022 26.0134 12.5489 26.1405 12.3415C26.2192 12.2133 27.102 12.1122 28.1436 12.1122C29.6571 12.1122 30.0059 12.1751 30.0059 12.4478ZM52.3866 12.3126C52.5675 12.6073 55.599 27.0734 55.5997 27.6454C55.6001 27.948 55.3281 27.99 53.7585 27.9296L51.9167 27.8587L51.7172 26.8185L51.5176 25.7783H48.8762H46.235L45.8687 26.7783L45.5025 27.7782L43.374 27.842L41.2456 27.9056L41.5485 27.1754C41.7153 26.7736 42.3271 25.295 42.9085 23.8895C46.3071 15.6725 47.2905 13.409 47.6772 12.9137C47.9314 12.5884 48.4005 12.3251 48.8201 12.2726C50.2425 12.0942 52.2666 12.1171 52.3866 12.3126ZM48.5 19.4908L47.5102 22.2229L49.0441 22.2887C49.8875 22.3249 50.6225 22.3096 50.6772 22.2545C50.808 22.1229 49.8456 17.164 49.6451 16.9353C49.5597 16.838 49.0445 17.988 48.5 19.4908Z" fill="white"/>
</g>
</svg>
