<svg width="383" height="261" viewBox="0 0 383 261" fill="none" xmlns="http://www.w3.org/2000/svg">
<g opacity="0.3" filter="url(#filter0_f_12_7)">
<path fill-rule="evenodd" clip-rule="evenodd" d="M0.0258775 39.2587V74.5175L9.46038 81.2528C26.2994 93.2742 26.5003 93.4344 27.699 95.7508C28.2877 96.889 29.7649 103.791 30.419 108.461C30.557 109.447 30.7363 110.072 30.8172 109.851C30.8981 109.63 30.4808 105.437 29.8899 100.533C29.2991 95.6301 28.6385 90.0057 28.4225 88.0347C27.2914 77.723 23.0191 50.222 20.3782 36.2521C19.9127 33.7884 19.0882 29.1119 18.5466 25.8598C18.005 22.6077 16.9318 16.4579 16.1616 12.1935C15.3917 7.92903 14.7617 4.34116 14.7617 4.22003C14.7617 4.09891 11.4461 4 7.39377 4H0.0258775V39.2587ZM32.0133 4.12471C32.0133 4.42286 34.5849 16.4726 35.2196 19.1481C35.6042 20.77 36.4129 24.5966 37.0167 27.6516C38.2448 33.8669 39.5559 40.0636 41.7174 49.8697C42.5214 53.516 43.6618 58.7361 44.2519 61.4704C44.8421 64.2043 45.4502 66.6652 45.6037 66.9382C45.7859 67.2629 47.3583 64.1792 50.1488 58.0252C56.0984 44.9032 58.9047 39.119 59.322 39.119C59.8302 39.119 62.0938 34.5062 62.6002 32.4381C62.8345 31.481 63.1508 30.5363 63.3028 30.3392C64.0313 29.395 68.1225 21.8107 69.1019 19.5885C70.1524 17.2058 72.3657 12.6751 74.0039 9.55453C74.8424 7.95698 76.5801 4.28597 76.5801 4.11217C76.5801 4.05053 66.5526 4 54.2967 4C42.0409 4 32.0133 4.0559 32.0133 4.12471ZM88.9395 16.8937C88.1376 17.2166 86.6436 18.9084 86.6436 19.4932C86.6436 19.6831 86.4154 20.3468 86.1365 20.9678C85.4662 22.4604 83.7683 26.8284 83.7683 27.0606C83.7683 27.161 83.3054 28.2622 82.7393 29.5078C82.1732 30.7535 81.1435 33.1434 80.4506 34.8187C79.758 36.494 78.7319 38.9753 78.1705 40.3327C77.6087 41.6898 76.9305 43.0186 76.6635 43.2849C76.3961 43.5515 75.8818 44.7792 75.5206 46.0134C74.9211 48.0618 71.745 56.1112 70.077 59.8102C69.7003 60.6458 69.3919 61.5027 69.3919 61.7145C69.3919 61.9262 69.0113 62.9361 68.5462 63.9581C68.0815 64.9802 67.2595 67.1471 66.7197 68.773C66.1802 70.3992 65.6246 71.7295 65.4855 71.7295C65.346 71.7295 65.2087 72.0362 65.1804 72.4114C65.1361 72.9966 64.4493 74.8672 63.26 77.6423C63.0911 78.0365 62.3957 79.8104 61.7146 81.5843C61.0339 83.3581 59.9067 86.0415 59.2106 87.5477L57.9447 90.2855L54.6712 91.4531C52.8709 92.0952 51.3355 92.7209 51.2597 92.8439C51.0484 93.1843 52.8124 101.211 53.1786 101.577C53.4902 101.887 69.9034 106.636 72.1012 107.052C73.1736 107.254 73.2142 107.208 74.3503 104.455C74.9868 102.914 75.5066 101.449 75.5048 101.201C75.5033 100.953 74.4398 99.1599 73.1416 97.2158L70.7814 93.6813L72.9986 87.991C78.0523 75.0213 83.9275 59.8521 85.1962 56.4993C87.5173 50.3635 88.4219 48.323 89.1753 47.5235C89.8272 46.8315 93.9755 37.253 96.6955 30.1601C97.2623 28.6818 98.2245 26.2812 98.834 24.8248C100.11 21.7749 100.217 20.4859 99.266 19.6276C98.6407 19.0632 91.0111 16.5138 90.1015 16.5651C89.8797 16.5776 89.3571 16.7256 88.9395 16.8937ZM330.593 61.3321C331.417 61.341 331.055 61.9728 330.088 62.2151C329.467 62.3703 329.029 62.2896 328.835 61.985C328.325 61.1827 328.494 60.8867 329.335 61.1113C329.779 61.23 330.346 61.3296 330.593 61.3321ZM161.872 61.8521C162.337 62.2036 162.928 64.1699 163.941 68.739C165.732 76.8214 165.81 77.8187 164.695 78.3867C162.723 79.3908 161.646 78.1627 160.882 74.0384C160.592 72.4727 159.943 69.6685 159.44 67.8065C158.937 65.9445 158.525 64.0219 158.525 63.5346C158.525 61.7098 160.422 60.7562 161.872 61.8521ZM183.642 62.3785C184.02 62.6175 184.082 63.1948 183.901 64.792C183.77 65.947 183.568 67.8209 183.451 68.9561C183.268 70.7314 183.121 71.05 182.403 71.2296C180.883 71.6101 180.757 71.222 181.018 66.9493C181.152 64.7497 181.423 62.7483 181.619 62.5018C182.032 61.9825 182.928 61.928 183.642 62.3785ZM205.913 66.5451L206.629 67.4528L205.372 70.2183C204.682 71.7391 203.9 73.4675 203.635 74.0588C203.371 74.6501 202.716 76.0946 202.18 77.2686C201.645 78.4429 201.009 79.9749 200.768 80.673C200.403 81.7283 200.134 81.962 199.171 82.0566C196.846 82.2856 196.4 80.8285 197.89 77.8699C198.389 76.8787 199.581 74.1258 200.538 71.7528C202.386 67.1701 202.817 66.448 203.978 65.9785C205.065 65.5392 205.136 65.56 205.913 66.5451ZM140.249 66.9812C140.537 67.3263 141.354 68.7372 142.063 70.1169C142.773 71.4965 143.641 73.1224 143.993 73.7298C144.767 75.0665 144.479 76.0297 143.306 76.0297C142.131 76.0297 142.352 76.349 138.279 68.7895C137.688 67.6929 137.644 67.3661 138.025 66.9081C138.636 66.1742 139.601 66.2057 140.249 66.9812ZM123.722 78.0903C125.292 79.6176 128.091 82.3232 129.944 84.1021C133.539 87.5545 134.325 88.9442 133.063 89.6179C131.391 90.5099 130.865 90.1458 124.499 83.6868C121.074 80.2114 118.274 77.188 118.277 76.9676C118.289 76.0968 119.176 75.4109 120.38 75.3413C120.649 75.3259 122.154 76.563 123.722 78.0903ZM225.267 76.0652C225.555 76.3515 225.157 77.1005 223.812 78.8066C220.964 82.4192 220.063 83.2582 219.169 83.1309C217.712 82.9235 218.133 81.9007 220.957 78.7837C223.7 75.757 224.471 75.2707 225.267 76.0652ZM282.881 77.2844C298.473 80.7317 312.863 83.6172 325.604 85.8509C329.839 86.5934 332.775 87.2793 333.099 87.6025C333.884 88.3859 333.405 89.342 331.675 90.4436C330.833 90.98 329.82 91.6477 329.425 91.9268C329.029 92.206 327.25 93.3832 325.471 94.5425C322.446 96.5141 318.508 99.2577 314.495 102.19C313.551 102.88 311.187 104.565 309.241 105.934C307.296 107.304 304.167 109.561 302.289 110.951C298.779 113.548 297.385 114.536 294.103 116.757C293.06 117.462 292.045 118.342 291.846 118.711C291.648 119.081 291.005 119.631 290.418 119.934C289.731 120.288 289.346 120.768 289.336 121.282C289.323 121.998 289.263 121.97 288.741 121.007C288.421 120.418 288.117 119.351 288.066 118.636C287.905 116.37 285.034 108.194 284.005 107.07C283.366 106.37 283.206 105.985 283.51 105.875C283.757 105.787 283.959 105.247 283.959 104.678C283.959 103.893 283.702 103.509 282.899 103.095C281.578 102.414 280.499 102.409 277.31 103.071C275.927 103.358 271.883 104.091 268.325 104.7C260.671 106.011 248.183 108.24 224.118 112.591C203.931 116.241 194.958 117.853 185.301 119.566C181.546 120.233 172.569 121.83 165.354 123.115C153.109 125.297 130.6 129.243 121.147 130.864C102.326 134.093 92.424 135.979 85.3253 137.689C82.9197 138.268 80.6957 138.742 80.3834 138.742C79.6089 138.742 79.6682 138.087 80.5081 137.366C80.8894 137.039 81.4656 135.965 81.7883 134.979C82.8669 131.688 83.2845 131.337 87.3624 130.299C88.4496 130.023 97.9919 128.27 108.568 126.403C183.33 113.211 233.131 103.763 272.997 95.2083C276.844 94.383 279.661 93.6466 279.639 93.4717C279.635 93.438 279.221 92.2812 278.72 90.9016C278.219 89.5219 277.568 87.5061 277.273 86.4221C276.979 85.3381 276.165 83.161 275.464 81.5843C273.2 76.4906 273.267 76.7543 274.076 76.1598C274.913 75.5442 275.145 75.5739 282.881 77.2844ZM182.052 80.0301C182.662 80.3071 183.074 80.8776 183.281 81.7323C184.141 85.2822 185.491 91.6874 185.486 92.2017C185.479 93.0933 184.523 93.6971 183.518 93.4455C182.808 93.2678 182.507 92.8223 182.059 91.2854C181.748 90.2203 181.275 89.1675 181.007 88.9456C180.646 88.6471 179.277 88.6479 175.725 88.9485C173.088 89.1718 170.815 89.4251 170.675 89.5118C170.534 89.5982 170.009 89.5663 169.507 89.4409C168.761 89.2542 168.466 88.8001 167.896 86.9593C166.679 83.0302 166.623 82.2802 167.502 81.6667C169.058 80.5798 169.942 81.3614 170.745 84.5346C170.956 85.3689 171.411 86.2017 171.755 86.3855C172.136 86.5891 173.5 86.5945 175.247 86.3995C180.639 85.7982 180.658 85.7831 180.019 82.6099C179.65 80.779 179.674 80.5407 180.279 80.1C181.081 79.5151 180.931 79.5209 182.052 80.0301ZM280.944 80.2655C280.771 80.5454 280.821 81.5072 281.277 86.7199C281.49 89.1581 282.622 92.6493 283.537 93.6953C283.847 94.0494 284.117 94.9743 284.136 95.7505C284.16 96.6937 284.424 97.3968 284.933 97.8687C285.351 98.2575 286.026 99.4631 286.434 100.548C287.366 103.034 290.78 109.843 290.989 109.635C291.195 109.429 290.125 105.838 289.518 104.698C288.599 102.976 287.312 99.8472 286.864 98.2479C286.616 97.3609 286.196 96.1515 285.933 95.5602C285.668 94.9689 285.217 93.6788 284.93 92.6933C284.642 91.7079 284.196 90.1759 283.937 89.2889C283.678 88.402 283.12 86.87 282.696 85.8846C281.485 83.0686 281.335 81.8462 282.149 81.4123C282.526 81.2112 283.289 81.0346 283.846 81.0195C284.845 80.9926 284.842 80.9862 283.6 80.5092C282.121 79.9412 281.198 79.8566 280.944 80.2655ZM89.241 98.7055C84.1277 113.92 80.465 125.237 79.9363 127.454C79.2347 130.396 81.2862 124.573 86.6278 108.461C90.0256 98.212 92.948 89.4233 93.1219 88.9306C93.9148 86.6841 95.3165 81.6911 95.19 81.5646C95.1123 81.4875 92.4355 89.2008 89.241 98.7055ZM162.777 82.5852C163.475 83.4244 164.569 89.2485 164.13 89.7946C163.914 90.0637 162.686 90.3887 161.401 90.5167C157.415 90.9134 152.247 91.8591 152.01 92.235C151.698 92.7313 152.031 93.839 152.645 94.3472C153.04 94.674 154.325 94.6238 158.299 94.1264C163.866 93.4301 165.354 93.5423 165.354 94.6586C165.354 95.6566 164.501 95.9727 161.041 96.2568C159.361 96.3944 157.339 96.6424 156.549 96.8076C153.412 97.4631 150.813 97.5842 150.175 97.1044C149.46 96.5665 147.985 91.0858 148.321 90.2139C148.585 89.528 148.762 89.4889 154.898 88.7597C157.548 88.445 159.852 88.1031 160.019 88.0003C160.525 87.6889 160.359 85.8233 159.784 85.3474C159.353 84.9908 158.195 85.0138 154.005 85.4631C148.433 86.0602 146.866 85.8921 147.092 84.7217C147.284 83.7283 148.684 83.3062 153.673 82.7371C159.772 82.0412 162.289 81.9993 162.777 82.5852ZM359.722 83.0457C359.838 83.8538 358.699 84.3289 355.482 84.8141C354.592 84.9485 353.087 85.3062 352.137 85.609C350.27 86.2042 348.653 85.857 348.653 84.8611C348.653 84.0186 349.432 83.6764 352.407 83.2109C353.977 82.965 355.594 82.626 356.001 82.4569C356.407 82.2881 357.387 82.1842 358.177 82.2254C359.329 82.2859 359.636 82.449 359.722 83.0457ZM293.237 82.7249C293.496 82.8285 293.806 82.8156 293.925 82.6966C294.045 82.5776 293.833 82.4931 293.454 82.5085C293.035 82.5257 292.95 82.6106 293.237 82.7249ZM301.211 84.5164C305.625 85.6868 315.016 87.8204 315.157 87.6842C315.441 87.4094 311.978 86.0949 310.461 85.9018C309.519 85.7821 308.319 85.5212 307.794 85.3219C306.871 84.9722 298.885 83.5327 298.156 83.585C297.958 83.599 299.333 84.0182 301.211 84.5164ZM347.871 85.2277C347.725 85.9759 347.197 86.1573 346.497 85.6996C346.018 85.3861 346.018 85.308 346.497 84.994C347.327 84.4508 348 84.5651 347.871 85.2277ZM345.26 85.3814C345.633 85.9835 344.696 86.6443 342.833 87.0919C340.487 87.6556 339.425 87.6 339.155 86.8987C338.878 86.1784 339.423 85.7882 341.106 85.5022C341.797 85.3847 342.525 85.2338 342.723 85.1668C343.542 84.8898 345.034 85.0159 345.26 85.3814ZM242.674 88.1798C243.497 88.8446 243.503 88.8811 242.861 89.5878C242.499 89.987 240.559 91.404 238.551 92.7367C236.543 94.0698 232.959 96.4475 230.587 98.021C228.215 99.5946 224.738 101.966 222.86 103.291C219.808 105.443 219.13 105.763 216.473 106.299C214.839 106.628 213.232 106.847 212.903 106.784C212.547 106.715 214.545 105.184 217.852 102.991C220.903 100.969 225.582 97.8064 228.251 95.9641C230.92 94.1214 233.507 92.4102 234.001 92.1608C234.496 91.9118 235.254 91.3864 235.687 90.9933C236.742 90.0368 240.905 87.4975 241.419 87.4975C241.645 87.4972 242.209 87.8043 242.674 88.1798ZM317.165 88.1146C317.308 88.2572 318.508 88.6461 319.831 88.979C321.154 89.3115 322.601 89.6975 323.045 89.8365C323.643 90.0232 323.854 89.9455 323.854 89.5387C323.854 89.1506 323.117 88.8209 321.357 88.4217C318.726 87.8251 316.728 87.6789 317.165 88.1146ZM109.52 91.887C113.407 93.9924 114.3 94.6209 114.228 95.2018C114.17 95.662 113.881 95.9082 113.42 95.8899C112.4 95.849 104.255 90.4504 104.255 89.8154C104.255 89.5258 104.36 89.2889 104.489 89.2889C104.618 89.2889 106.882 90.4579 109.52 91.887ZM0.0258775 96.2558C0.0258775 99.558 0.17072 101.878 0.385287 102.011C0.582962 102.132 0.744697 103.583 0.744697 105.234C0.744697 106.885 0.892773 108.623 1.07356 109.098C1.46675 110.129 6.11751 113.658 7.07821 113.655C7.67771 113.653 18.6307 104.585 21.4107 101.79L22.489 100.706L21.0513 99.4355C17.8512 96.6073 17.5654 96.5052 12.1125 96.2332L7.12709 95.9845L3.78602 93.3534C1.94836 91.9064 0.350424 90.7224 0.235413 90.7224C0.120043 90.7224 0.0258775 93.2122 0.0258775 96.2558ZM351.149 92.727C352.391 93.2226 352.68 93.5649 353.337 95.3158C354.552 98.5518 354.605 99.2423 353.714 100.188C352.876 101.077 352.926 102.094 353.904 104.032C354.377 104.97 356.386 105.986 356.715 105.454C356.912 105.138 359.82 104.489 362.553 104.151C363.652 104.016 364.493 103.714 364.609 103.414C364.719 103.127 365.288 102.907 365.917 102.907C369.353 102.907 369.223 105.554 365.765 105.994C362.308 106.434 358.206 106.635 357.356 106.406C356.243 106.106 355.328 106.99 354.986 108.694C354.764 109.8 355.505 109.636 345.598 110.763C339.659 111.439 330.51 112.094 329.784 111.896C329.586 111.841 328.877 111.727 328.207 111.643C327.537 111.558 326.85 111.402 326.679 111.297C326.163 110.979 326.333 110.065 326.953 109.828C327.456 109.636 327.426 109.523 326.74 109.007L325.945 108.409L327.255 107.36C327.976 106.783 329.324 105.627 330.253 104.79C331.643 103.539 331.845 103.207 331.401 102.915C330.684 102.441 328.099 102.457 323.404 102.965C321.278 103.194 319.442 103.285 319.324 103.167C318.701 102.546 323.573 98.2662 325.692 97.5731C326.361 97.3541 329.487 96.6854 332.638 96.087C335.789 95.4885 340.318 94.4539 342.702 93.7874C346.689 92.6729 348.091 92.3353 349.275 92.2045C349.518 92.1777 350.361 92.4128 351.149 92.727ZM284.189 101.294C284.303 101.59 284.459 101.831 284.537 101.831C284.615 101.831 284.678 101.59 284.678 101.294C284.678 100.998 284.522 100.756 284.33 100.756C284.139 100.756 284.075 100.998 284.189 101.294ZM102.098 107.366C111.873 110.407 116.296 111.807 120.248 113.111C130.659 116.547 136.502 118.427 137.982 118.818L139.543 119.23L138.878 120.048C137.904 121.248 135.941 121.135 131.155 119.601C128.912 118.882 126.796 118.137 126.453 117.946C126.11 117.755 125.574 117.599 125.262 117.599C124.95 117.599 123.937 117.301 123.01 116.937C122.084 116.573 120.114 115.91 118.631 115.463C117.148 115.017 115.612 114.516 115.217 114.35C114.821 114.185 113.932 113.896 113.24 113.708C112.548 113.52 109.637 112.529 106.771 111.506C103.904 110.484 100.912 109.459 100.121 109.231C99.3307 109.002 98.4412 108.659 98.1447 108.468C97.8482 108.278 97.4438 108.102 97.2462 108.077C97.0485 108.053 96.6751 108.008 96.4163 107.978C96.1575 107.948 96.0436 107.765 96.1633 107.573C96.2829 107.38 96.2172 106.917 96.017 106.544C95.6651 105.888 95.7327 105.882 98.067 106.365C99.3947 106.639 101.209 107.09 102.098 107.366ZM277.609 107.577C277.84 107.583 277.715 107.825 277.332 108.114C276.565 108.692 273.177 108.846 273.177 108.303C273.177 107.915 275.994 107.215 276.711 107.425C276.974 107.502 277.378 107.57 277.609 107.577ZM173.993 111.923C175.372 112.743 176.426 113.488 176.334 113.579C176.109 113.805 170.036 115.059 169.086 115.077C168.384 115.09 168.349 114.975 168.622 113.568C168.784 112.73 168.924 111.929 168.933 111.787C168.949 111.517 170.722 110.471 171.206 110.446C171.36 110.438 172.614 111.103 173.993 111.923ZM370.049 111.31C371.392 111.869 371.75 112.941 370.594 112.941C369.737 112.941 368.061 113.67 368.061 114.044C368.061 114.194 368.331 114.785 368.661 115.359C369.228 116.342 369.223 116.498 368.572 118.105C367.76 120.108 366.64 120.824 364.318 120.824C363.027 120.824 362.444 120.604 361.467 119.749C360.792 119.158 359.929 118.674 359.55 118.674C359.171 118.674 358.68 118.495 358.461 118.275C357.693 117.51 357.29 118.091 357.812 119.212C358.381 120.437 359.435 124.5 359.435 125.472C359.435 126.073 358.777 126.136 350.181 126.356C340.243 126.61 307.374 127.561 298.516 127.851C294.226 127.992 293.271 127.94 293.843 127.598C294.239 127.362 294.851 126.87 295.205 126.505C295.568 126.131 296.352 125.841 297.002 125.84C297.637 125.839 299.693 125.588 301.57 125.281C303.448 124.974 306.926 124.497 309.298 124.22C318.029 123.202 320.446 122.866 320.713 122.632C320.863 122.501 319.812 122.524 318.377 122.684C306.643 123.988 304.088 124.235 304.098 124.065C304.11 123.864 309.367 119.972 313.107 117.393C315.138 115.994 315.428 115.907 320.168 115.289C322.887 114.934 326.648 114.423 328.526 114.153C333.836 113.39 355.125 111.466 355.527 111.714C355.724 111.836 356.04 112.34 356.229 112.835C356.498 113.54 356.678 113.648 357.06 113.331C357.328 113.11 357.799 113.025 358.108 113.143C358.489 113.288 358.851 113.005 359.241 112.253C359.896 110.989 359.827 111.015 361.035 111.564L361.949 111.979L361.115 113.467C360.192 115.114 360.334 115.926 361.832 117.569C362.449 118.246 362.947 118.423 364.116 118.377C364.937 118.345 365.777 118.216 365.981 118.09C366.484 117.78 366.045 114.251 365.333 112.877C365.026 112.285 364.862 111.573 364.969 111.296C365.23 110.617 368.408 110.626 370.049 111.31ZM276.951 117.767C275.693 118.795 275.334 118.877 275.334 118.137C275.334 117.841 275.647 117.599 276.031 117.599C276.415 117.599 276.829 117.438 276.951 117.241C277.073 117.044 277.366 116.883 277.601 116.884C277.837 116.885 277.544 117.283 276.951 117.767ZM283.479 120.466C284.777 123.095 285.441 124.815 285.505 125.712L285.577 126.715L281.669 127.202C279.223 127.506 277.635 127.562 277.422 127.351C277.017 126.947 275.708 122.057 275.699 120.914C275.694 120.185 275.873 120.104 277.58 120.065C278.618 120.042 279.952 119.897 280.545 119.743C282.229 119.306 283 119.496 283.479 120.466ZM44.2627 122.031C43.3164 123.558 43.325 123.848 44.3422 124.651C44.7975 125.01 45.2781 125.588 45.4103 125.934C45.5426 126.281 45.8538 126.523 46.1015 126.472C46.3495 126.421 46.6079 126.742 46.6758 127.185C46.8167 128.105 47.143 128.178 48.2816 127.544C48.7237 127.297 49.1378 127.07 49.2017 127.039C49.2657 127.009 49.4497 126.041 49.6111 124.889C49.8444 123.222 49.793 122.67 49.3595 122.18C48.948 121.714 48.6508 121.652 48.1415 121.923C47.7709 122.121 47.4679 122.142 47.4679 121.97C47.4679 121.655 45.9121 120.824 45.3241 120.824C45.1515 120.824 44.6739 121.368 44.2627 122.031ZM327.021 121.786C327.28 121.889 327.591 121.876 327.71 121.758C327.829 121.639 327.617 121.554 327.238 121.569C326.82 121.587 326.735 121.672 327.021 121.786ZM260.256 122.774C260.02 123.058 259.596 123.202 259.314 123.094C258.469 122.771 258.733 122.258 259.743 122.258C260.523 122.258 260.611 122.347 260.256 122.774ZM322.326 122.495C322.574 122.595 322.978 122.595 323.225 122.495C323.472 122.396 323.27 122.314 322.776 122.314C322.281 122.314 322.079 122.396 322.326 122.495ZM258.082 123.154C258.082 123.449 257.839 123.691 257.543 123.691C257.246 123.691 257.004 123.449 257.004 123.154C257.004 122.858 257.246 122.616 257.543 122.616C257.839 122.616 258.082 122.858 258.082 123.154ZM262.395 122.975C262.395 123.172 262.233 123.333 262.035 123.333C261.838 123.333 261.676 123.172 261.676 122.975C261.676 122.777 261.838 122.616 262.035 122.616C262.233 122.616 262.395 122.777 262.395 122.975ZM250.355 123.691C250.232 123.888 249.89 124.05 249.593 124.05C249.297 124.05 249.154 123.888 249.276 123.691C249.399 123.494 249.741 123.333 250.038 123.333C250.334 123.333 250.477 123.494 250.355 123.691ZM252.331 123.87C252.817 124.454 252.701 124.527 251.822 124.19C251.509 124.071 251.253 123.829 251.253 123.653C251.253 123.157 251.835 123.275 252.331 123.87ZM254.935 123.571C254.687 123.671 254.575 123.9 254.687 124.08C254.798 124.26 254.637 124.408 254.329 124.408C254.021 124.408 253.769 124.166 253.769 123.87C253.769 123.544 254.086 123.344 254.578 123.361C255.022 123.377 255.183 123.471 254.935 123.571ZM248.425 124.172C248.205 124.437 248.145 124.778 248.291 124.931C248.438 125.083 247.992 125.092 247.3 124.949C245.604 124.601 244.93 123.913 246.491 124.125C247.134 124.212 247.659 124.151 247.659 123.988C247.659 123.825 247.921 123.691 248.242 123.691C248.689 123.691 248.732 123.803 248.425 124.172ZM99.4425 124.4C100.448 124.407 100.543 124.501 100.385 125.327C100.225 126.16 100.084 126.229 98.907 126.055C98.191 125.949 96.6736 125.758 95.5343 125.631C94.395 125.503 93.3638 125.24 93.243 125.044C93.1047 124.821 92.9271 124.845 92.7643 125.107C92.4042 125.688 90.5971 125.186 90.5971 124.505C90.5971 124.042 91.1574 123.994 94.4607 124.178C96.5859 124.296 98.8276 124.396 99.4425 124.4ZM244.772 125.892C243.4 126.171 243.178 126.074 243.171 125.189C243.163 124.177 243.793 124.062 244.929 124.869L246.013 125.639L244.772 125.892ZM91.5793 124.811C91.8234 125.056 92.1134 125.166 92.2238 125.055C92.3345 124.945 92.135 124.745 91.7806 124.61C91.2685 124.416 91.2271 124.457 91.5793 124.811ZM174.347 126.012C173.775 126.699 173.261 126.715 173.261 126.047C173.261 125.766 173.544 125.473 173.89 125.396C174.757 125.204 174.88 125.371 174.347 126.012ZM199.125 126.73C199.842 127.1 200.101 127.46 199.98 127.92C199.885 128.282 200.06 128.788 200.368 129.043C200.843 129.436 200.975 129.382 201.232 128.688C201.462 128.068 201.609 127.986 201.834 128.349C202.364 129.204 202.115 129.349 182.786 139.45C180.018 140.897 177.452 142.285 177.083 142.534C176.434 142.975 171.549 148.226 161.443 159.348C158.757 162.304 155.328 166.013 153.824 167.59C152.32 169.167 149.542 172.15 147.65 174.22C144.978 177.143 143.823 178.138 142.472 178.679C141.517 179.062 140.521 179.586 140.26 179.844C139.554 180.539 138.263 180.412 137.147 179.535C136.219 178.808 136.172 178.637 136.387 176.81C136.652 174.559 136.845 174.149 139.013 171.212C141.694 167.581 141.69 167.622 139.381 167.892C136.947 168.177 136.673 167.912 136.222 164.837C135.769 161.756 135.599 160.885 134.787 157.507C133.864 153.668 133.879 153.449 135.074 153.369C137.21 153.226 137.537 153.188 138.578 152.963C140.053 152.645 141.376 152.464 144.329 152.179C145.713 152.045 147.365 151.871 148.002 151.793C148.871 151.686 149.252 151.822 149.529 152.34C149.961 153.143 150.021 154.182 149.63 154.083C149.482 154.046 148.875 154.13 148.282 154.271C147.689 154.412 145.047 154.753 142.41 155.028C139.773 155.304 137.529 155.615 137.425 155.72C137.32 155.825 137.344 156.643 137.479 157.539C137.659 158.735 137.885 159.168 138.331 159.165C139.847 159.158 147.801 158.096 148.256 157.841C148.535 157.684 152.237 152.643 156.483 146.638C162.617 137.961 164.317 135.306 164.764 133.703C165.073 132.594 165.577 131.478 165.885 131.224C166.192 130.97 167.792 130.487 169.441 130.151L172.44 129.54L172.848 130.667C173.823 133.354 177.042 135.135 180.02 134.633C182.897 134.148 185.508 131.29 184.348 129.896C183.956 129.425 183.845 129.437 183.434 129.999C182.855 130.787 182.821 130.133 183.377 128.915C183.604 128.42 183.945 128.11 184.136 128.228C184.327 128.346 184.62 128.219 184.788 127.948C185.577 126.668 197.106 125.689 199.125 126.73ZM173.98 127.633C173.98 127.83 173.809 127.992 173.599 127.992C173.39 127.992 173.319 127.83 173.441 127.633C173.563 127.436 173.734 127.275 173.822 127.275C173.909 127.275 173.98 127.436 173.98 127.633ZM285.294 127.863C285.386 128.136 284.367 128.355 282.203 128.526C277.902 128.865 277.066 128.3 281.084 127.769C284.635 127.299 285.11 127.31 285.294 127.863ZM175.774 130.417L176.668 131.23L175.508 131.103C174.277 130.968 172.902 129.975 172.902 129.22C172.902 128.5 173.751 128.382 174.34 129.02C174.636 129.341 175.282 129.97 175.774 130.417ZM181.6 132.005C181.264 132.339 181.072 132.339 180.737 132.005C180.402 131.671 180.497 131.575 181.168 131.575C181.839 131.575 181.935 131.671 181.6 132.005ZM377.554 137.779C377.979 138.089 378.155 138.506 378.015 138.869C377.765 139.519 377.521 139.531 361.951 139.665C354.02 139.733 352.601 139.657 352.612 139.166C352.636 138.12 353.387 138.001 360.842 137.865C365.045 137.788 368.546 137.662 368.623 137.585C368.7 137.509 370.586 137.408 372.814 137.362C375.827 137.299 377.043 137.407 377.554 137.779ZM109.033 140.416C108.931 140.683 109.067 141.172 109.336 141.503C109.704 141.956 109.71 142.036 109.36 141.826C109.105 141.673 108.66 141.742 108.372 141.98C108.004 142.285 107.849 142.295 107.849 142.011C107.849 141.79 107.687 141.609 107.489 141.609C107.292 141.609 107.13 141.851 107.13 142.147C107.13 142.442 106.868 142.684 106.547 142.684C106.079 142.684 106.049 142.582 106.394 142.167C106.749 141.74 106.678 141.657 105.989 141.693C105.529 141.717 104.951 141.888 104.704 142.075C104.384 142.316 104.251 142.22 104.242 141.742C104.23 141.117 104.2 141.121 103.793 141.8C103.336 142.562 102.922 142.674 102.219 142.228C101.989 142.082 101.705 142.166 101.59 142.413C101.428 142.76 101.327 142.748 101.152 142.361C100.98 141.983 100.813 142.065 100.477 142.692L100.03 143.525L99.7818 142.746C99.6456 142.318 99.3925 141.967 99.22 141.967C98.7851 141.967 98.439 142.589 98.7715 142.774C98.921 142.857 98.8595 142.883 98.6353 142.832C98.4106 142.78 97.9254 142.944 97.557 143.196C96.7937 143.717 95.6288 143.795 95.6288 143.325C95.6288 143.153 95.3625 143.059 95.0372 143.116C94.7116 143.174 94.3802 143.037 94.3008 142.811C94.221 142.585 94.4471 142.423 94.8025 142.452C95.2151 142.486 95.4146 142.294 95.3535 141.921C95.241 141.234 95.9336 141.017 98.1447 141.049C99.0342 141.061 99.8429 140.969 99.9417 140.845C100.116 140.625 102.848 140.235 105.95 139.987C106.784 139.92 107.752 139.706 108.102 139.511C108.823 139.108 109.342 139.613 109.033 140.416ZM255.566 139.953C257.807 140.226 262.713 140.651 264.007 140.685C265.118 140.714 265.529 141.387 264.967 142.256C264.734 142.616 264.302 142.641 263.081 142.365C262.209 142.169 259.42 141.814 256.883 141.577C253.473 141.259 252.216 141.01 252.068 140.625C251.833 140.014 252.633 139.413 253.41 139.616C253.706 139.694 254.677 139.846 255.566 139.953ZM234.06 145.063C234.448 146.612 234.914 148.606 235.096 149.493C235.279 150.38 235.654 152.116 235.93 153.351C236.205 154.586 236.329 155.656 236.204 155.728C235.924 155.892 233.787 156.21 230.947 156.51C228.762 156.741 228.276 156.798 225.376 157.173C220.968 157.742 221.189 157.758 220.765 156.832C220.547 156.354 220.181 154.87 219.953 153.534C219.724 152.199 219.377 150.906 219.181 150.662C218.986 150.418 218.912 149.995 219.018 149.72C219.123 149.446 219.072 149.081 218.905 148.91C218.737 148.738 218.497 147.895 218.371 147.037C218.245 146.18 217.986 145.069 217.795 144.569C217.605 144.069 217.52 143.588 217.608 143.5C217.763 143.346 220.568 142.954 224.661 142.513C225.75 142.396 227.933 142.092 229.513 141.838C231.764 141.476 232.489 141.47 232.87 141.811C233.137 142.05 233.673 143.513 234.06 145.063ZM93.7376 142.07C93.6542 142.319 92.9487 142.505 92.0883 142.505C90.996 142.505 90.7196 142.407 91.0787 142.147C91.8273 141.604 93.9137 141.543 93.7376 142.07ZM90.2377 142.125C90.2377 142.213 90.0759 142.383 89.8783 142.505C89.6806 142.627 89.5189 142.555 89.5189 142.347C89.5189 142.138 89.6806 141.967 89.8783 141.967C90.0759 141.967 90.2377 142.038 90.2377 142.125ZM96.5273 142.326C96.6495 142.523 96.9112 142.684 97.1089 142.684C97.3065 142.684 97.3684 142.523 97.2462 142.326C97.124 142.129 96.8623 141.967 96.6646 141.967C96.4669 141.967 96.4051 142.129 96.5273 142.326ZM76.8022 149.299C76.1042 150.707 74.9484 152.46 74.2339 153.193C71.722 155.772 69.8494 156.402 71.6231 154.072C72.1148 153.426 73.2196 151.607 74.0786 150.03C74.9376 148.454 75.7384 147.083 75.8581 146.984C75.9777 146.886 76.4723 146.241 76.9568 145.551L77.8381 144.297L77.9548 145.517C78.0361 146.364 77.6835 147.521 76.8022 149.299ZM225.196 144.876C221.332 145.351 221.063 145.452 221.063 146.43C221.063 146.907 221.209 147.681 221.388 148.151C221.702 148.974 221.803 148.995 224.174 148.745C225.527 148.602 227.587 148.384 228.752 148.262C229.916 148.139 231.008 147.953 231.178 147.849C231.61 147.582 231.561 146.466 231.068 145.389C230.6 144.364 229.873 144.301 225.196 144.876ZM229.975 150.043C229.841 150.176 227.71 150.463 224.527 150.776L222.062 151.018L222.25 152.137C222.353 152.752 222.615 153.713 222.831 154.272C223.197 155.217 223.325 155.272 224.64 155.05C225.418 154.919 226.59 154.762 227.243 154.702C229.728 154.471 232.13 154.061 232.564 153.793C232.9 153.586 232.934 153.07 232.698 151.784C232.401 150.159 232.31 150.049 231.232 149.995C230.599 149.963 230.034 149.985 229.975 150.043ZM242.555 152.852C243.732 153.449 247.456 154.713 253.23 156.477C255.602 157.201 258.052 158.022 258.675 158.302C259.298 158.582 260.138 158.81 260.541 158.81C260.944 158.81 261.348 158.931 261.439 159.079C261.679 159.471 260.433 161.87 260.036 161.78C259.851 161.738 258.325 161.202 256.644 160.589C254.964 159.976 251.18 158.68 248.235 157.709C245.29 156.738 242.702 155.81 242.485 155.648C242.266 155.485 241.632 155.396 241.076 155.449C240.113 155.541 240.075 155.489 240.308 154.401C240.537 153.336 241.074 152.36 241.431 152.36C241.516 152.36 242.021 152.581 242.555 152.852ZM128.458 154.603C129.162 155.117 131.828 167.297 131.451 168.277C131.331 168.59 130.82 168.844 130.314 168.844C129.256 168.844 128.901 168.148 128.351 164.987C127.29 158.894 126.706 156.847 125.989 156.714C124.097 156.364 123.743 154.711 125.531 154.575C126.163 154.527 126.756 154.412 126.849 154.32C127.148 154.021 127.823 154.14 128.458 154.603ZM107.13 158.496C107.13 158.959 106.872 159.169 106.303 159.169C105.849 159.169 105.323 159.31 105.135 159.483C104.948 159.656 103.742 160.152 102.458 160.586C101.173 161.019 99.0838 161.786 97.8158 162.29C95.6037 163.17 95.4908 163.18 95.0304 162.553C94.4309 161.735 94.4219 161.327 94.9998 161.189C97.2947 160.643 105.274 157.791 105.845 157.314C106.308 156.927 107.13 157.683 107.13 158.496ZM14.1607 158.362C14.4465 159.717 15.8079 166.312 16.0289 167.411C16.3485 168.999 15.5826 167.386 14.6175 164.439C13.6044 161.344 13.0282 157.377 13.5921 157.377C13.7905 157.377 14.0464 157.82 14.1607 158.362ZM143.251 160.981C142.46 161.144 141.135 161.287 140.307 161.298C139.478 161.309 138.707 161.47 138.593 161.654C138.324 162.087 138.951 164.879 139.421 165.349C139.635 165.561 140.46 165.607 141.44 165.461C142.912 165.241 143.278 164.985 144.702 163.176C145.583 162.056 146.305 161.019 146.305 160.871C146.306 160.544 145.173 160.584 143.251 160.981ZM364.121 165.458C364.425 165.547 364.698 165.941 364.728 166.336C364.778 166.999 364.561 167.052 361.839 167.049C360.221 167.048 358.073 166.947 357.068 166.827C355.355 166.622 355.25 166.551 355.41 165.717L355.58 164.826L359.575 165.062C361.771 165.192 363.817 165.37 364.121 165.458ZM186.018 167.494C186.152 168.335 186.505 169.991 186.803 171.174C187.102 172.356 187.719 175.017 188.174 177.086C188.629 179.156 189.27 181.978 189.6 183.358C191.091 189.6 191.805 192.73 193.198 199.125C193.713 201.491 194.312 204.114 194.529 204.956C194.869 206.276 194.835 206.585 194.28 207.196C192.938 208.675 191.159 207.766 190.757 205.397C190.425 203.447 188.861 196.191 186.547 185.866C186.149 184.092 185.65 181.835 185.438 180.849C184.352 175.793 184.051 174.434 183.183 170.659C182.645 168.317 182.383 166.474 182.571 166.359C182.753 166.248 183.548 166.114 184.339 166.061C185.772 165.965 185.776 165.968 186.018 167.494ZM243.166 172.069C243.327 172.069 243.988 172.472 244.635 172.965C245.283 173.457 246.188 174.025 246.646 174.225C248.548 175.058 251.073 176.704 251.073 177.11C251.073 177.74 249.859 178.429 249.536 177.982C249.393 177.785 248.67 177.316 247.929 176.941C247.188 176.564 246.581 176.121 246.581 175.955C246.581 175.789 246.358 175.653 246.086 175.653C245.813 175.653 245.398 175.421 245.162 175.138C244.927 174.856 244.26 174.52 243.681 174.393C243.101 174.266 242.627 174.027 242.627 173.862C242.627 173.697 242.021 173.198 241.28 172.753C240.538 172.309 239.878 171.906 239.813 171.859C239.747 171.811 239.876 171.433 240.098 171.019L240.503 170.265L241.689 171.167C242.341 171.663 243.006 172.069 243.166 172.069ZM223.625 177.868C224.072 178.494 225.013 179.528 225.716 180.165C226.418 180.802 229.139 183.438 231.763 186.023C235.941 190.141 236.486 190.81 236.155 191.426C235.948 191.813 235.376 192.229 234.886 192.352C234.139 192.539 233.571 192.18 231.392 190.144C229.961 188.807 228.628 187.456 228.431 187.142C228.233 186.827 226.877 185.444 225.417 184.068C221.054 179.955 219.985 178.865 219.985 178.535C219.985 178.132 221.828 176.754 222.386 176.74C222.62 176.733 223.177 177.241 223.625 177.868ZM79.096 192.496C79.096 192.89 78.9342 193.212 78.7366 193.212C78.5389 193.212 78.3772 192.89 78.3772 192.496C78.3772 192.102 78.5389 191.779 78.7366 191.779C78.9342 191.779 79.096 192.102 79.096 192.496ZM213.064 195.452C214.234 197.473 215.501 199.644 215.88 200.278C216.528 201.362 216.533 201.466 215.959 202.039C215.141 202.854 214.497 202.312 213.165 199.684C212.609 198.589 211.571 196.829 210.858 195.775C209.393 193.608 209.115 191.779 210.249 191.779C210.743 191.779 211.535 192.813 213.064 195.452ZM359.794 193.031C363.262 193.549 364.988 194.246 364.357 194.876C363.973 195.258 361.278 195.149 358.896 194.654C357.71 194.408 356.256 194.179 355.664 194.146C354.565 194.085 354.131 193.364 354.545 192.288C354.694 191.901 354.914 191.855 355.384 192.115C355.734 192.309 357.719 192.722 359.794 193.031ZM97.5887 193.629C98.0922 193.857 98.5041 194.247 98.5041 194.496C98.5041 194.997 95.2216 202.338 93.1895 206.381C91.7249 209.295 90.9842 209.639 89.5199 208.086C88.7627 207.282 88.7242 207.091 89.14 206.204C90.0242 204.319 90.114 204.137 90.6866 203.067C91.4701 201.604 93.2718 197.614 93.8418 196.079C94.3817 194.625 95.5505 193.212 96.2136 193.212C96.4666 193.212 97.0851 193.4 97.5887 193.629ZM78.3872 196.857C78.2075 198.611 77.2989 199.818 77.2989 198.303C77.2989 197.666 78.2535 195.004 78.4817 195.004C78.5342 195.004 78.4914 195.838 78.3872 196.857ZM37.1137 199.125C37.5662 200.308 37.9921 201.396 38.0597 201.544C38.1276 201.692 38.0029 201.813 37.7826 201.813C37.5623 201.813 37.2862 201.531 37.1691 201.186C37.0519 200.841 36.4908 199.578 35.9223 198.38C35.3537 197.182 34.8922 195.973 34.8965 195.693C34.9105 194.796 36.2515 196.872 37.1137 199.125ZM171.202 199.842C171.071 204.354 170.736 207.065 170.22 207.768C169.802 208.338 169.67 208.354 169.121 207.899C168.561 207.436 168.523 206.899 168.75 202.731C169.029 197.625 169.306 196.694 170.5 196.864C171.24 196.969 171.28 197.139 171.202 199.842ZM29.3605 200.38C30.2486 202.055 31.1277 203.579 31.3143 203.766C31.8462 204.299 31.7121 205.755 31.1101 205.985C30.2864 206.301 29.6689 205.603 27.8895 202.349C26.3652 199.561 25.9249 197.969 26.5147 197.381C27.1272 196.77 27.8539 197.536 29.3605 200.38ZM104.614 199.256C104.614 199.821 104.292 200.691 103.898 201.191C103.504 201.69 102.736 202.961 102.191 204.016C101.028 206.266 99.7699 206.804 99.3713 205.221C99.1891 204.497 99.3803 203.977 100.202 202.958C100.788 202.229 101.556 201.069 101.908 200.38C102.81 198.61 103.17 198.229 103.939 198.229C104.442 198.229 104.614 198.491 104.614 199.256ZM20.564 202.082C23.4752 205.149 25.3952 208.651 24.5998 209.444C24.2159 209.827 22.3481 208.658 21.6994 207.629C21.3604 207.091 20.6107 206.098 20.0338 205.423C18.5502 203.686 17.8414 201.893 18.382 201.244C18.9826 200.522 19.1411 200.583 20.564 202.082ZM112.45 202.752C112.576 203.629 108.359 209.448 107.745 209.244C106.946 208.979 106.575 207.933 107.047 207.278C107.296 206.933 107.81 206.167 108.189 205.576C110.195 202.449 110.812 201.775 111.57 201.883C112.036 201.949 112.384 202.293 112.45 202.752ZM17.5471 209.689C22.3959 214.74 23.3875 215.952 23.3875 216.83C23.3875 218.128 21.9962 219.351 20.7821 219.119C20.3246 219.032 19.5914 218.439 19.1533 217.801C18.7152 217.163 18.0693 216.329 17.7182 215.947C17.367 215.564 16.0455 214.123 14.7811 212.743C13.517 211.363 11.7013 209.383 10.7467 208.342C9.67602 207.175 9.01112 206.119 9.01112 205.585C9.01112 204.689 10.1871 203.604 11.1579 203.606C11.4598 203.606 14.335 206.344 17.5471 209.689ZM119.35 207.335C119.35 208.882 115.264 213.445 114.081 213.22C112.64 212.946 113.128 211.598 115.608 209C118.136 206.35 119.35 205.81 119.35 207.335ZM7.73521 211.757C8.75162 212.693 10.1824 213.97 10.9145 214.594C11.991 215.51 12.2458 215.974 12.2458 217.013C12.2458 218.516 11.6244 218.682 9.90676 217.637C8.2524 216.631 4.36467 212.611 4.12458 211.659C3.57756 209.485 5.31962 209.533 7.73521 211.757ZM40.3915 211.457C40.5709 211.636 40.5195 212.117 40.2722 212.578C39.9394 213.198 39.9351 213.708 40.2535 214.768C40.7556 216.438 42.0394 217.382 43.4221 217.097C43.9669 216.984 44.211 216.98 43.9637 217.087C43.7168 217.194 43.5144 217.511 43.5144 217.79C43.5144 218.069 43.2082 218.297 42.8341 218.297C42.0398 218.297 41.7174 218.967 41.7174 220.615C41.7174 222.124 42.9009 222.956 45.0473 222.956C46.4573 222.956 47.4679 223.417 47.4679 224.059C47.4679 224.383 46.0231 224.909 43.0152 225.68L40.5392 226.315L39.5509 225.212C38.7796 224.351 38.5107 223.608 38.3278 221.83C38.1988 220.577 37.8325 217.838 37.5137 215.743C37.0156 212.469 37.0048 211.853 37.439 211.349C37.9576 210.748 39.7457 210.813 40.3915 211.457ZM126.179 212.727C126.179 213.278 122.715 216.481 121.307 217.233C120.528 217.648 120.326 217.633 119.81 217.118C119.481 216.791 119.284 216.474 119.371 216.415C119.458 216.356 120.708 215.221 122.148 213.893C124.392 211.823 124.868 211.531 125.473 211.854C125.861 212.061 126.179 212.454 126.179 212.727ZM134.32 216.338C134.748 217.451 133.807 218.67 131.031 220.601C129.449 221.701 126.942 223.433 125.46 224.452C123.977 225.47 122.683 226.412 122.585 226.547C122.486 226.681 121.758 227.219 120.967 227.742C120.176 228.266 118.559 229.418 117.373 230.304C116.187 231.189 114.731 232.181 114.138 232.507C113.545 232.833 112.174 233.761 111.091 234.568C110.007 235.376 108.766 236.278 108.331 236.574C107.897 236.869 106.519 237.827 105.269 238.702C101.011 241.683 100.56 241.949 99.7674 241.949C99.3315 241.949 98.686 241.63 98.3326 241.242C97.7788 240.631 97.7518 240.386 98.1368 239.459C98.3822 238.869 99.0357 238.099 99.5888 237.748C100.142 237.398 101.499 236.507 102.604 235.767C103.71 235.028 105.522 233.819 106.633 233.08C107.743 232.341 109.094 231.413 109.635 231.019C110.177 230.625 112.705 228.907 115.254 227.202C117.803 225.497 120.293 223.753 120.787 223.326C121.282 222.899 123.303 221.419 125.28 220.037C127.257 218.655 129.199 217.223 129.596 216.855C131.402 215.179 133.774 214.92 134.32 216.338ZM355.302 220.616C358.33 221.361 359.795 221.882 359.795 222.214C359.795 222.35 359.542 222.774 359.233 223.156C358.835 223.65 358.617 223.722 358.484 223.404C358.382 223.158 357.858 222.956 357.321 222.956C356.784 222.956 356.15 222.763 355.913 222.526C355.676 222.29 355.482 222.192 355.482 222.309C355.482 222.426 354.876 222.373 354.134 222.191C353.393 222.009 352.228 221.778 351.546 221.679C350.018 221.456 349.966 221.405 350.273 220.439C350.556 219.552 351.048 219.569 355.302 220.616ZM54.3916 221.737C54.8394 222.183 54.1849 222.956 53.3597 222.956C52.3394 222.956 52.2693 222.672 53.1286 222.022C53.8388 221.484 54.0829 221.429 54.3916 221.737ZM239.075 223.228C240.647 224.11 241.909 225.576 241.909 226.522C241.909 227.412 240.147 228.69 238.919 228.69C237.573 228.69 233.553 227.148 230.981 225.645C229.633 224.858 229.398 224.572 229.673 224.06C230.91 221.756 235.693 221.333 239.075 223.228ZM363.5 222.983C363.621 223.445 363.433 223.987 363.003 224.416C362.039 225.377 361.592 225.278 361.592 224.103C361.592 222.407 363.115 221.514 363.5 222.983ZM366.03 223.396C366.236 224.181 365.455 225.823 364.876 225.823C364.714 225.823 364.384 225.388 364.141 224.857C363.747 223.995 363.789 223.823 364.533 223.252C365.615 222.423 365.779 222.439 366.03 223.396ZM137.297 223.824C137.808 224.438 137.15 225.715 136.162 226.028C135.82 226.135 134.546 226.886 133.331 227.696C131.618 228.836 130.989 229.085 130.536 228.801C129.128 227.916 129.872 226.469 132.342 225.286C133.005 224.969 134.113 224.396 134.804 224.013C136.305 223.181 136.735 223.149 137.297 223.824ZM369.149 224.235C369.468 225.072 369.552 225.105 370.064 224.594C370.804 223.856 371.535 223.88 371.971 224.657C372.272 225.194 372.479 225.224 373.427 224.867C374.429 224.49 374.531 224.517 374.531 225.166C374.531 225.773 374.692 225.844 375.609 225.644C376.795 225.384 377.034 225.942 376.313 227.284C376.012 227.845 375.8 227.908 375.234 227.607C374.738 227.342 374.311 227.348 373.785 227.629C373.154 227.966 373.01 227.913 372.845 227.283C372.63 226.464 371.68 226.3 371.011 226.968C370.678 227.299 370.419 227.222 369.86 226.624C369.464 226.2 369.139 225.667 369.139 225.44C369.139 225.213 368.828 225.408 368.446 225.873C367.675 226.814 367.176 226.58 366.813 225.106C366.641 224.405 366.771 224.123 367.417 223.806C368.646 223.204 368.767 223.233 369.149 224.235ZM224.557 227.198C225.157 228.007 226.323 228.563 230.285 229.926C236.938 232.216 237.596 232.608 237.596 234.288C237.596 234.965 237.296 235.301 236.341 235.7C235.213 236.169 234.765 236.153 231.938 235.535C226.67 234.385 220.653 231.797 218.886 229.923C218.167 229.16 218.137 228.992 218.593 228.307C219.058 227.609 221.886 226.345 223.241 226.229C223.55 226.203 224.142 226.639 224.557 227.198ZM141.205 230.073C141.892 230.508 141.34 232.323 140.449 232.555C140.052 232.659 138.865 233.203 137.811 233.763C135.631 234.923 134.98 235.008 134.205 234.235C133.484 233.516 133.826 232.719 135.064 232.235C135.613 232.021 137.023 231.377 138.198 230.805C140.569 229.65 140.545 229.656 141.205 230.073ZM145.227 237.458C145.227 238.04 144.337 239.812 144.024 239.853C139.652 240.424 138.945 240.389 138.832 239.599C138.716 238.793 139.357 238.368 141.934 237.543C143.197 237.138 145.227 237.086 145.227 237.458ZM361.809 241.431C362.121 242.67 360.713 244.227 359.546 243.935C358.63 243.705 357.995 244.483 357.291 246.697C356.877 248.001 356.242 248.504 356.161 247.593C355.935 245.046 357.412 241.747 358.578 242.194C358.86 242.302 359.514 241.968 360.031 241.453C361.206 240.282 361.518 240.278 361.809 241.431ZM364.755 242.192C364.84 243.038 364.653 243.414 363.901 243.904C363.11 244.422 362.884 244.447 362.631 244.047C362.077 243.177 362.294 242.002 363.113 241.429C364.183 240.682 364.625 240.887 364.755 242.192ZM367.422 243.045C367.547 243.895 367.386 244.295 366.702 244.831C366.217 245.212 365.678 245.435 365.503 245.327C364.979 245.005 365.145 243.116 365.751 242.512C366.623 241.643 367.245 241.841 367.422 243.045ZM264.419 244.975C265.842 247.922 266.422 248.57 268.626 249.676C270.272 250.502 270.63 251.247 269.785 252.089C269.327 252.545 269.03 252.568 268.059 252.222C267.415 251.992 266.772 251.643 266.631 251.445C266.274 250.947 260.226 251.014 259.308 251.527C258.312 252.083 257.004 251.715 257.004 250.879C257.004 250.079 258.031 249.476 259.406 249.47C261.06 249.462 261.968 249.093 262.564 248.186C263.086 247.392 263.061 247.177 262.21 245.162C261.24 242.864 261.282 242.307 262.425 242.307C262.949 242.307 263.465 242.996 264.419 244.975ZM369.858 244.722C369.858 245.238 370.044 246.172 370.27 246.797C370.846 248.383 370.434 249.615 368.701 251.49C366.77 253.578 365.911 254.055 365.475 253.278C365.18 252.753 365.052 252.751 364.079 253.252C363.49 253.555 362.838 253.699 362.631 253.571C362.213 253.314 362.507 251.715 363.102 251C363.626 250.37 364.806 250.438 365.066 251.113C365.24 251.565 365.547 251.418 366.628 250.366C367.956 249.074 367.971 249.026 367.793 246.809C367.628 244.767 367.687 244.508 368.434 243.987C369.445 243.281 369.858 243.494 369.858 244.722ZM147.273 245.044C147.664 246.062 146.873 246.786 145.366 246.79C144.598 246.792 143.766 246.923 143.517 247.082C142.749 247.572 141.749 247.027 141.813 246.155C141.862 245.493 142.086 245.353 143.101 245.353C143.776 245.353 144.543 245.152 144.804 244.905C145.481 244.266 147.006 244.351 147.273 245.044ZM359.06 250.108C358.759 250.644 358.235 251.135 357.896 251.2C357.065 251.36 357.056 249.597 357.884 248.685C358.432 248.082 358.542 248.072 359.049 248.577C359.552 249.079 359.553 249.234 359.06 250.108ZM361.951 250.432C361.951 251.475 361.048 252.7 360.278 252.7C359.592 252.7 359.669 250.923 360.39 250.13C361.254 249.177 361.951 249.312 361.951 250.432ZM65.8697 255.638C64.8335 256.671 65.3946 257 68.1965 257H70.955L70.1107 256.104C69.4749 255.429 68.9006 255.208 67.7839 255.208C66.9684 255.208 66.1069 255.402 65.8697 255.638Z" fill="black"/>
</g>
<defs>
<filter id="filter0_f_12_7" x="-3.97412" y="0" width="386.036" height="261" filterUnits="userSpaceOnUse" color-interpolation-filters="sRGB">
<feFlood flood-opacity="0" result="BackgroundImageFix"/>
<feBlend mode="normal" in="SourceGraphic" in2="BackgroundImageFix" result="shape"/>
<feGaussianBlur stdDeviation="2" result="effect1_foregroundBlur_12_7"/>
</filter>
</defs>
</svg>
