<svg width="24" height="21" viewBox="0 0 24 21" fill="none" xmlns="http://www.w3.org/2000/svg">
<path fill-rule="evenodd" clip-rule="evenodd" d="M0.492184 14.2594C0.540039 14.3629 0.623138 14.4867 0.676875 14.5345C0.923963 14.7542 0.781856 14.7493 6.9317 14.7514L12.7298 14.7535L12.743 17.4004C12.7562 20.0346 12.7568 20.048 12.8599 20.2137C13.0969 20.5949 13.6194 20.7036 14.0058 20.4523C14.1208 20.3775 16.3037 18.2229 18.8567 15.6645C22.6079 11.905 23.5092 10.9782 23.5551 10.8331C23.6219 10.6219 23.5851 10.3678 23.4576 10.1603C23.3288 9.95076 14.0215 0.718992 13.8702 0.650808C13.4473 0.46014 12.9086 0.72172 12.7845 1.17806C12.7506 1.30276 12.7332 2.22768 12.733 3.91903L12.7328 6.47178H6.86902L1.00527 6.47178L0.820112 6.57587C0.718237 6.63309 0.588317 6.75486 0.531381 6.84643L0.427812 7.01292L0.416472 10.5421C0.405696 13.8901 0.409555 14.0809 0.492184 14.2594Z" fill="black"/>
</svg>
