<svg width="24" height="21" viewBox="0 0 24 21" fill="none" xmlns="http://www.w3.org/2000/svg">
<path fill-rule="evenodd" clip-rule="evenodd" d="M23.5078 6.91629C23.4599 6.81277 23.3768 6.68902 23.3231 6.64126C23.076 6.42155 23.2181 6.42645 17.0683 6.42428L11.2702 6.42221L11.2569 3.77535C11.2437 1.14111 11.2432 1.1277 11.1401 0.962014C10.9031 0.580866 10.3806 0.472075 9.99416 0.723397C9.87911 0.798215 7.69622 2.95278 5.14328 5.51127C1.39208 9.2707 0.490736 10.1976 0.444859 10.3426C0.378086 10.5539 0.414885 10.808 0.542404 11.0154C0.671146 11.225 9.97849 20.4567 10.1297 20.5249C10.5527 20.7156 11.0914 20.454 11.2155 19.9977C11.2494 19.873 11.2668 18.948 11.2669 17.2567L11.2672 14.7039H17.1309L22.9947 14.7039L23.1798 14.5999C23.2817 14.5426 23.4116 14.4209 23.4686 14.3293L23.5721 14.1628L23.5835 10.6337C23.5943 7.28558 23.5904 7.09487 23.5078 6.91629Z" fill="black"/>
</svg>
