<svg width="100" height="100" viewBox="0 0 100 100" fill="none" xmlns="http://www.w3.org/2000/svg">
<path fill-rule="evenodd" clip-rule="evenodd" d="M46.104 0.059536C41.4273 0.488034 36.055 1.7228 32.0387 3.29265C15.0753 9.92239 3.24073 24.7282 0.438176 42.8266C-0.104213 46.3299 -0.107915 53.769 0.431206 57.0802C1.29097 62.3605 3.09828 67.9636 5.37151 72.3966L6.41469 74.4314L3.13857 86.1382C0.805214 94.4765 -0.0957174 98.012 0.00796811 98.4251C0.19225 99.1584 0.840502 99.8129 1.56173 99.9938C1.93312 100.087 6.20296 99.1264 14.2952 97.1291L26.47 94.124L28.6136 95.1319C33.2089 97.2924 37.8427 98.7268 42.9455 99.5682C45.8568 100.048 53.4297 100.114 56.4508 99.6857C67.4597 98.125 77.5604 93.1812 85.1654 85.6315C91.6609 79.1832 96.2699 71.2024 98.4828 62.5717C99.6926 57.8534 100 55.3079 100 50.0039C100 44.7 99.6926 42.1544 98.4828 37.4362C95.4185 25.4846 87.7154 14.7996 77.2532 7.98849C74.6668 6.30454 69.3418 3.69088 66.4708 2.69584C63.8824 1.799 60.3074 0.927201 57.3129 0.462995C55.2022 0.135743 48.0738 -0.120747 46.104 0.059536ZM54.4128 4.50346C73.0159 6.34548 88.8015 19.3868 93.9098 37.1337C95.2429 41.7656 95.6398 44.7176 95.6398 50.0039C95.6398 53.924 95.5583 55.1455 95.1385 57.5157C93.2731 68.0511 88.4044 76.8906 80.535 84.0301C74.2281 89.7523 66.3654 93.5367 57.5399 95.0981C53.4624 95.8195 46.5913 95.8203 42.5227 95.1001C37.7325 94.2518 33.9371 93.0111 29.6997 90.9081C28.2851 90.2059 26.988 89.6313 26.8176 89.6313C26.6471 89.6313 21.7357 90.8075 15.9037 92.2452C10.0716 93.6826 5.28329 94.834 5.26325 94.8035C5.243 94.773 6.4833 90.2899 8.0192 84.8412C9.55531 79.3924 10.813 74.6659 10.8141 74.3377C10.8152 74.0098 10.1757 72.4663 9.39281 70.9078C6.15308 64.4579 4.62393 58.6483 4.34925 51.7458C3.66876 34.6527 12.6278 18.6328 27.5887 10.1906C35.7154 5.60497 45.209 3.59203 54.4128 4.50346ZM29.767 24.2392C29.2279 24.4275 28.3588 24.8882 27.8355 25.263C26.4722 26.2397 24.3873 28.9257 23.4195 30.9523C22.1165 33.6812 21.8166 35.0882 21.8407 38.3552C21.8647 41.6149 22.3692 43.7138 23.9075 46.9557C25.9296 51.2174 30.4619 57.202 35.3695 62.0909C41.6636 68.361 47.1468 71.7082 55.9043 74.6262C59.8234 75.9322 61.6305 76.2266 64.6748 76.0556C67.5055 75.8967 69.6036 75.254 72.1169 73.7755C76.3521 71.2842 78.1827 68.0942 78.2189 63.1428C78.2326 61.2659 78.1951 61.0952 77.58 60.2293C76.9818 59.3871 76.4658 59.0921 71.4819 56.741C68.4872 55.3284 65.5599 54.0185 64.9765 53.8301C62.5493 53.0465 61.5377 53.5704 58.7188 57.0711C57.5656 58.5031 56.4808 59.764 56.3081 59.8729C55.8853 60.1394 52.0176 58.3087 49.4932 56.647C46.2574 54.5171 41.651 49.6963 39.8927 46.5999L39.5052 45.9177L40.8435 44.3636C41.5795 43.5087 42.4898 42.1991 42.8667 41.4531C44.0002 39.209 43.9253 38.7561 41.4347 32.803C40.2571 29.9889 39.068 27.2365 38.792 26.6869C38.1719 25.4517 37.013 24.4084 35.9265 24.1068C34.6675 23.7573 30.9158 23.8379 29.767 24.2392ZM36.9965 33.4562C38.1836 36.2704 39.2011 38.6731 39.2575 38.7957C39.4045 39.1153 38.2967 40.7557 36.908 42.2744C34.2505 45.1809 34.3305 46.3839 37.4768 50.8394C41.3865 56.3761 46.2646 60.4037 52.4728 63.2214C55.7705 64.7181 56.5288 64.8265 58.0135 64.0124C59.0956 63.4191 61.2404 61.1499 62.7969 58.9512C63.1402 58.4661 63.5465 58.0672 63.6996 58.0646C64.0425 58.0589 67.9862 59.8498 71.4525 61.5851L74.0381 62.8798L73.8989 63.9277C73.6528 65.7835 73.1134 67.2048 72.3243 68.0779C71.3046 69.206 69.5372 70.3554 67.7298 71.0659C66.4031 71.5875 65.965 71.6472 63.4212 71.6533L60.5895 71.6603L57.2602 70.5176C51.1288 68.4132 48.025 66.8288 43.75 63.6207C37.247 58.7405 29.9417 49.9917 27.4855 44.1423C26.6242 42.0911 26.064 39.6819 26.064 38.0286C26.064 36.231 26.7429 33.497 27.5193 32.1686C28.1952 31.012 30.3277 28.6999 30.9651 28.4325C31.2047 28.3321 32.174 28.2701 33.1192 28.2947L34.8378 28.3395L36.9965 33.4562Z" fill="#EBC673"/>
</svg>
