<svg width="274" height="39" viewBox="0 0 274 39" fill="none" xmlns="http://www.w3.org/2000/svg">
<g opacity="0.8">
<path fill-rule="evenodd" clip-rule="evenodd" d="M202.543 0.324817C202.19 0.778168 195.991 11.4712 195.991 11.6271C195.991 11.6993 196.661 11.7586 197.48 11.7586C198.958 11.7586 198.973 11.7511 199.538 10.7537L200.106 9.74898L202.226 9.81646L204.346 9.88419L204.424 10.8214L204.501 11.7586H205.982C207.122 11.7586 207.464 11.6736 207.464 11.3897C207.464 11.1868 207.071 8.63785 206.591 5.7253C206.111 2.81275 205.718 0.335813 205.718 0.221101C205.718 -0.119038 202.815 -0.0240693 202.543 0.324817ZM227.287 0.324817C227.155 0.687698 224.927 11.2917 224.925 11.5711C224.924 11.6744 225.525 11.7586 226.26 11.7586H227.598L227.867 10.4465C228.015 9.72474 228.535 7.23356 229.024 4.91032C229.512 2.58683 229.911 0.534498 229.911 0.349309C229.911 -0.100544 227.451 -0.123537 227.287 0.324817ZM209.705 3.69871C209.703 3.93938 209.636 4.38424 209.554 4.68739C209.413 5.21722 209.483 5.24171 211.352 5.31219L213.298 5.38566L210.817 7.49072C209.453 8.6486 208.299 9.62328 208.254 9.65701C208.208 9.6905 208.109 10.1771 208.034 10.7382L207.897 11.7586H211.779C215.447 11.7586 215.669 11.7311 215.803 11.2587C216.261 9.64077 216.434 9.78497 213.937 9.70625L211.654 9.63427L214.111 7.53346C216.563 5.4369 216.72 5.24371 217.034 3.94863L217.201 3.26136H213.455C210.055 3.26136 209.708 3.30184 209.705 3.69871ZM217.69 3.47854C217.69 3.59825 217.411 5.04702 217.069 6.69823C216.567 9.12494 216.501 9.85145 216.722 10.4872C217.301 12.1519 219.886 12.5213 221.268 11.1368C221.652 10.7519 221.681 10.7602 221.681 11.254C221.681 11.7363 221.798 11.7778 222.971 11.7091L224.262 11.6336L225.077 7.88484C225.525 5.82302 225.898 3.93938 225.906 3.69871C225.918 3.33483 225.696 3.26136 224.585 3.26136H223.249L222.716 5.92649C222.066 9.17692 221.736 9.75923 220.545 9.75923C219.971 9.75923 219.617 9.62103 219.516 9.35711C219.431 9.13618 219.603 7.80362 219.897 6.39608C220.192 4.98854 220.433 3.70746 220.433 3.54926C220.433 3.36682 219.93 3.26136 219.062 3.26136C218.307 3.26136 217.69 3.35907 217.69 3.47854ZM203.725 4.19855C203.726 4.57643 203.798 5.47613 203.884 6.1979L204.042 7.50997H202.76C202.055 7.50997 201.478 7.43224 201.478 7.33727C201.478 6.99763 203.352 3.51327 203.536 3.51227C203.639 3.51177 203.724 3.82067 203.725 4.19855ZM150.099 9.79947C150.099 9.95892 151.166 12.1624 152.471 14.6961L154.843 19.3029L153.638 20.8416C148.177 27.8126 145.176 31.6753 145.018 31.9395C144.873 32.1831 145.572 32.2519 148.204 32.2519H151.576L154.641 28.3459C161.023 20.2118 161.572 19.4985 161.585 19.3174C161.592 19.2149 160.498 16.9686 159.153 14.3255L156.708 9.51981L153.403 9.51456C151.058 9.51081 150.099 9.59354 150.099 9.79947ZM165.354 10.9463C165.123 12.2137 161.633 28.8692 161.086 31.3147L160.876 32.2519H169.666H178.455L178.868 30.3705C179.094 29.3356 179.28 28.3796 179.28 28.2462C179.28 28.0955 176.903 28.0033 173.015 28.0033C167.095 28.0033 166.758 27.9785 166.869 27.5512C166.934 27.3025 167.196 26.0654 167.451 24.8021L167.914 22.5051H173.67H179.425L179.815 20.6359C180.03 19.6078 180.147 18.7081 180.075 18.6366C180.004 18.5649 177.431 18.5064 174.358 18.5064C169.156 18.5064 168.78 18.4761 168.895 18.069C168.964 17.8283 169.147 16.9569 169.303 16.1321C169.46 15.3074 169.643 14.4357 169.711 14.1953C169.826 13.7939 170.344 13.7579 176.022 13.7579H182.208L182.508 12.1959C182.673 11.337 182.868 10.3808 182.941 10.0716L183.075 9.50931H174.345H165.616L165.354 10.9463ZM206.895 15.5228C205.553 15.85 204.6 16.3906 203.96 17.1893L203.404 17.8816L203.568 16.8097L203.732 15.7378L201.564 15.81L199.398 15.8822L197.081 26.7537C195.808 32.733 194.76 37.7096 194.754 37.8126C194.748 37.9155 195.745 38 196.969 38H199.193L199.569 36.3131C199.776 35.3851 200.141 33.6702 200.381 32.5018C200.621 31.3334 200.838 30.3465 200.863 30.3088C200.888 30.2713 201.349 30.6821 201.888 31.222C203.059 32.3953 204.517 32.8592 206.479 32.6827C211.267 32.2521 214.517 27.9405 214.529 22.0052C214.533 19.6692 214.219 18.6596 213.06 17.2813C211.82 15.808 209.012 15.0073 206.895 15.5228ZM224.923 15.4921C223.461 15.7893 221.964 16.715 221.15 17.8258C220.724 18.4064 220.441 18.6563 220.52 18.3814C220.599 18.1065 220.77 17.3995 220.899 16.8099L221.133 15.7385L218.975 15.8103L216.817 15.8822L215.276 23.2548C214.429 27.3097 213.666 30.993 213.581 31.4396L213.427 32.2519H215.683C216.924 32.2519 217.939 32.1946 217.939 32.1244C217.939 31.5736 219.785 23.5775 220.069 22.8947C221.018 20.6199 223.153 19.3059 225.412 19.606C226.566 19.7595 226.665 19.7302 226.787 19.2014C227.67 15.3639 227.655 15.5628 227.078 15.4079C226.451 15.2392 226.101 15.2529 224.923 15.4921ZM233.47 15.5124C229.551 16.3193 226.743 19.5875 226.114 24.0753C225.425 28.9989 227.97 32.3578 232.643 32.6927C236.256 32.9519 238.923 31.8183 240.692 29.2726C242.144 27.184 242.052 27.0036 239.531 27.0036C237.476 27.0036 237.415 27.0211 236.892 27.7571C236.174 28.7673 235.163 29.2529 233.777 29.2529C231.657 29.2529 230.41 28.1692 230.41 26.3276V25.2632L236.458 25.1962L242.507 25.1292V22.5051C242.507 20.0874 242.452 19.7882 241.815 18.7023C240.627 16.676 238.89 15.697 236.016 15.4324C235.196 15.3569 234.051 15.3929 233.47 15.5124ZM249.278 15.5086C245.405 16.1951 243.277 18.8405 244.109 21.935C244.511 23.4325 245.452 24.0721 248.985 25.2522C251.015 25.9299 252.201 26.4593 252.361 26.7589C252.783 27.5479 252.635 28.3906 251.964 29.0219C251.423 29.5318 251.07 29.6277 249.738 29.6277C247.885 29.6277 246.89 29.0632 246.508 27.7956L246.269 27.0036H244.246H242.222L242.379 28.1907C242.638 30.1528 243.39 31.0813 245.503 32.0454C246.53 32.514 247.182 32.6135 249.241 32.6153C252.004 32.6175 253.242 32.3354 254.74 31.3617C256.094 30.4827 256.833 29.3308 257.011 27.8238C257.348 24.9725 256.108 23.5955 251.906 22.1562C248.718 21.064 248.03 20.481 248.621 19.3738C249.009 18.6476 249.544 18.4486 251.112 18.4486C252.574 18.4486 253.2 18.7753 253.602 19.7465C253.915 20.5055 253.916 20.5057 255.973 20.5057H258.031L257.82 19.3776C257.705 18.757 257.493 18.0305 257.35 17.7631C256.986 17.0808 255.637 16.1182 254.603 15.8028C253.317 15.4101 250.661 15.2634 249.278 15.5086ZM264.493 15.5086C262.561 15.851 260.659 16.9121 259.891 18.0753C259.344 18.9037 259.217 19.3811 259.217 20.6234C259.217 23.2188 260.003 23.9471 264.236 25.2757C265.656 25.721 267.044 26.2966 267.32 26.5542C267.991 27.1808 267.954 28.072 267.22 28.9265C266.675 29.5613 266.465 29.6277 264.994 29.6277C263.097 29.6277 262.107 29.0737 261.722 27.7956L261.484 27.0036H259.393H257.303L257.474 28.0657C257.982 31.2235 260.984 32.9879 265.328 32.6817C270.138 32.3431 272.871 29.7095 272.193 26.0681C271.886 24.4182 270.337 23.2198 267.129 22.1484C264.135 21.149 263.432 20.6392 263.68 19.6482C263.891 18.8095 264.606 18.4674 266.179 18.4531C267.768 18.4389 268.404 18.7508 268.816 19.7465C269.128 20.5015 269.141 20.5057 271.095 20.5057H273.06V19.748C273.06 17.9853 271.751 16.3926 269.818 15.8028C268.531 15.4101 265.875 15.2634 264.493 15.5086ZM182.772 15.8445C182.772 15.8925 183.565 17.5897 184.536 19.616C185.506 21.6423 186.245 23.4305 186.179 23.59C186.113 23.7492 184.421 25.7632 182.418 28.0657L178.777 32.2519H181.351H183.926L186.026 29.6277C187.181 28.1845 188.184 27.0053 188.255 27.0073C188.326 27.0093 188.884 28.1902 189.494 29.6315L190.605 32.2519H192.924C194.199 32.2519 195.241 32.1674 195.24 32.0644C195.238 31.9615 194.337 30.0304 193.238 27.7733L191.24 23.6697L191.827 23.0249C192.691 22.076 197.318 16.704 197.711 16.1946C198.026 15.7848 197.89 15.7573 195.554 15.7573H193.06L191.47 17.8059C190.596 18.9327 189.758 20.0171 189.608 20.2158C189.394 20.5007 189.138 20.0664 188.404 18.1672L187.472 15.7573H185.122C183.829 15.7573 182.772 15.7965 182.772 15.8445ZM208.31 19.1352C209.504 19.703 210.049 20.8149 210.014 22.6158C209.938 26.5915 207.944 29.2499 205.036 29.2519C203.949 29.2526 203.596 29.1324 202.926 28.5323C202.189 27.8731 202.113 27.6621 202.021 26.0464C201.753 21.2782 205.094 17.6059 208.31 19.1352ZM236.754 19C237.536 19.2979 238.389 20.6367 238.39 21.5679L238.391 22.2551H234.65C232.592 22.2551 230.909 22.1934 230.909 22.1177C230.909 21.3567 232.602 19.4548 233.652 19.0364C234.469 18.7113 235.95 18.6938 236.754 19Z" fill="white"/>
</g>
<g opacity="0.8">
<path fill-rule="evenodd" clip-rule="evenodd" d="M6.77753 1.44007C5.74109 5.37263 -0.0449931 28.7562 0.000264053 28.8291C0.0346784 28.8847 26.2782 28.9296 58.6864 28.9296H117.31L117.508 28.2549C117.617 27.8837 117.805 27.1709 117.924 26.6706C118.303 25.0876 118.566 24.0281 119.418 20.6564C121.343 13.0394 124.27 1.26486 124.27 1.13754C124.27 1.03251 110.381 1 65.5819 1H6.8935L6.77753 1.44007ZM21.2041 4.05478C22.8131 4.20475 23.794 4.43875 24.8577 4.92635C26.6015 5.72586 27.6924 7.22385 27.8277 9.00466C27.8647 9.49319 27.8611 10.0276 27.8196 10.1923L27.7441 10.4917L24.592 10.4985C22.8583 10.5023 21.3658 10.4579 21.2753 10.3998C21.1795 10.3385 21.143 10.2108 21.1881 10.094C21.3184 9.75583 21.0265 8.95561 20.6281 8.55896C20.1645 8.0973 19.5788 7.92526 18.4684 7.92444C16.7183 7.92303 15.488 8.77054 15.488 9.97739C15.488 10.4724 15.649 10.8314 16.0027 11.1249C16.5221 11.5558 16.7497 11.6198 20.4969 12.3899C22.6384 12.83 24.7719 13.9937 25.6527 15.2022C26.8623 16.8617 26.6301 19.5869 25.0814 21.9065C23.2087 24.7113 19.3485 26.1788 14.4273 25.9565C10.6474 25.7859 8.19229 24.5364 7.07441 22.2142C6.60746 21.2441 6.38259 20.1587 6.43563 19.1308L6.47193 18.4267L9.72656 18.3955L12.9811 18.3644L13.0392 19.1733C13.1797 21.1275 14.5179 22.0149 16.9471 21.7645C19.2914 21.523 20.4959 19.3349 18.9022 18.2128C18.3596 17.8307 18.2655 17.7989 15.9005 17.1994C12.9701 16.4567 11.7026 15.8701 10.6445 14.7669C9.89757 13.988 9.65372 13.605 9.36897 12.7634C8.44215 10.024 10.0591 6.8211 13.1309 5.31243C15.3532 4.22094 18.2104 3.77583 21.2041 4.05478ZM49.3868 4.45811C49.4234 4.55293 49.249 5.56943 48.9995 6.71713L48.5458 8.80387L42.9222 8.83438C37.6839 8.86278 37.291 8.87898 37.1872 9.07225C37.071 9.28853 36.4482 12.0323 36.4224 12.4418C36.4079 12.6726 36.4997 12.6774 42.0059 12.7351L47.6041 12.7938L47.5744 13.0669C47.5292 13.4834 46.7271 17.0883 46.6534 17.2073C46.6168 17.2661 44.1445 17.3119 41.0041 17.3119C37.9247 17.3119 35.3912 17.3581 35.3558 17.4149C35.2187 17.6357 34.5665 20.8604 34.6271 21.0177C34.6813 21.1585 35.5552 21.1845 40.2481 21.1845H45.8048L45.7469 21.4485C45.7151 21.5937 45.5741 22.2489 45.4337 22.9046C45.2933 23.5602 45.0877 24.458 44.977 24.8996L44.7755 25.7025L35.8444 25.7325C28.3605 25.7578 26.9033 25.7365 26.8512 25.6014C26.817 25.5128 26.9487 24.7336 27.1437 23.8698C27.3388 23.006 27.7161 21.2959 27.9819 20.0696C28.2479 18.8433 28.565 17.4175 28.6866 16.9011C28.8082 16.3848 28.9973 15.5398 29.1067 15.0235C29.2161 14.5072 29.3468 13.8999 29.397 13.674C29.4473 13.4481 29.5965 12.7616 29.7287 12.1484C30.1294 10.2892 30.6846 7.77587 30.8046 7.2783C30.8669 7.02013 31.0323 6.28082 31.1723 5.63538C31.3125 4.98995 31.4504 4.42232 31.4788 4.37385C31.5073 4.32539 35.5333 4.28584 40.4254 4.28584C48.1377 4.28584 49.3293 4.30872 49.3868 4.45811ZM65.6952 4.56174C67.3922 4.99946 68.6863 5.78724 69.5229 6.89187C70.4654 8.13649 70.9791 10.2528 70.8417 12.3244C70.6987 14.4781 69.8771 17.5314 68.9429 19.3811C67.676 21.889 65.2118 24.0783 62.572 25.0409C62.3775 25.1117 61.5522 25.3 60.7379 25.4592C59.2939 25.7414 59.1148 25.749 53.4897 25.7615C50.3174 25.7687 47.6232 25.7715 47.5026 25.7678C47.2525 25.7602 47.2659 25.6182 47.6775 23.897C47.8069 23.3558 48.0104 22.4581 48.1296 21.9021C48.2488 21.346 48.7561 19.0956 49.2569 16.9011C49.7577 14.7067 50.2191 12.6735 50.2822 12.3831C50.6955 10.4805 52.034 4.57805 52.0871 4.42443C52.1307 4.29805 53.3142 4.27833 58.5348 4.31694C64.0416 4.35766 65.0354 4.39158 65.6952 4.56174ZM92.9912 4.45072C93.0261 4.54143 92.9691 4.97704 92.8645 5.41887C92.6841 6.18048 92.5702 6.67254 92.3255 7.74771C92.2667 8.00588 92.2041 8.34914 92.1865 8.51049L92.1542 8.80387L86.4797 8.83438C81.3988 8.86161 80.7977 8.88449 80.7327 9.05301C80.6392 9.29593 80.1241 11.5873 80.0173 12.2364L79.9352 12.7351H85.5438C90.9038 12.7351 91.1524 12.7447 91.1524 12.9503C91.1524 13.1462 90.4026 16.6222 90.2558 17.1065C90.1977 17.2984 89.8227 17.3119 84.5524 17.3119C79.2804 17.3119 78.9074 17.3253 78.8533 17.5172C78.8216 17.6301 78.6832 18.2507 78.5459 18.8961C78.4086 19.5415 78.2485 20.2777 78.1901 20.532C78.1317 20.7862 78.1105 21.0371 78.1429 21.0894C78.1755 21.1416 80.6884 21.1845 83.7274 21.1845C86.7663 21.1845 89.2756 21.224 89.3034 21.2725C89.3473 21.3484 89.1048 22.5206 88.5206 25.0571L88.372 25.7025L79.4276 25.7325C72.8779 25.7546 70.4612 25.7271 70.401 25.6301C70.3558 25.5572 70.3644 25.3324 70.4201 25.1306C70.4759 24.9288 70.6864 23.998 70.8879 23.0621C71.0894 22.1262 71.3263 21.0436 71.4145 20.6564C71.6235 19.7369 72.1636 17.2653 72.2863 16.6664C72.3827 16.1956 73.4078 11.5535 73.8282 9.68401C74.601 6.2469 74.8883 4.90968 74.8882 4.74938C74.888 4.28455 74.8618 4.28584 84.0492 4.28584C91.5655 4.28584 92.9373 4.31119 92.9912 4.45072ZM102.707 4.84326C102.845 5.1499 103.267 6.1664 103.644 7.10228C104.837 10.0602 104.979 10.3881 105.068 10.3881C105.155 10.3881 106.76 8.4767 108.765 5.98744C109.337 5.27746 109.91 4.6041 110.038 4.49121C110.249 4.30556 110.604 4.28584 113.744 4.28584C116.75 4.28584 117.211 4.30919 117.178 4.45976C117.157 4.5554 115.151 6.83248 112.72 9.51995C110.289 12.2073 108.284 14.5027 108.264 14.6207C108.243 14.7387 108.541 15.4321 108.925 16.1616C109.309 16.891 110.409 19.0193 111.369 20.8911C112.329 22.7628 113.263 24.5797 113.444 24.9283C113.624 25.2771 113.745 25.6072 113.711 25.6618C113.677 25.7164 111.962 25.7612 109.899 25.7612C107.043 25.7612 106.12 25.7262 106.027 25.6145C105.96 25.5338 105.612 24.7549 105.254 23.8835C104.895 23.0122 104.331 21.6392 104 20.8324C103.668 20.0256 103.33 19.2983 103.249 19.216C103.129 19.0954 102.863 19.3542 101.87 20.5536C101.194 21.3715 99.9462 22.8647 99.0982 23.8717L97.5565 25.7025L93.7652 25.7335C91.0732 25.7554 89.9738 25.7271 89.9738 25.6356C89.9738 25.5039 91.2447 24.0298 92.4453 22.7687C92.8139 22.3814 93.6683 21.4524 94.3438 20.704C95.5255 19.3952 98.3363 16.3211 99.3696 15.2076C99.6433 14.9127 99.8686 14.6305 99.8705 14.5805C99.8723 14.5304 99.5221 13.7647 99.0924 12.8789C96.5069 7.54938 95.057 4.42701 95.1329 4.35156C95.1691 4.31541 96.8316 4.28584 98.8272 4.28584H102.456L102.707 4.84326ZM58.0036 9.29018C57.9431 9.39087 57.8275 9.87365 57.2626 12.3831C57.0955 13.1253 56.8531 14.1815 56.7238 14.7301C56.0203 17.7148 55.3598 20.7848 55.4045 20.8617C55.4786 20.9896 57.1553 20.9696 58.481 20.8249C60.385 20.6172 61.4049 19.9947 62.2182 18.544C63.4266 16.3884 64.1447 12.0251 63.4927 10.7988C63.1662 10.1849 62.8171 9.87142 62.0991 9.548C61.5967 9.32174 61.2607 9.27645 59.7876 9.23655C58.8394 9.21073 58.0367 9.23491 58.0036 9.29018ZM70.822 31.5496C69.6496 32.0065 69.5546 32.263 69.6044 34.8351C69.6405 36.6967 69.6635 36.8789 69.9055 37.2168C70.3209 37.7965 71.2148 38.0429 72.1655 37.8399C73.3189 37.5936 73.5763 36.9317 73.5473 34.2856C73.5255 32.2909 73.3084 31.8396 72.2226 31.5317C71.6325 31.3642 71.2864 31.3687 70.822 31.5496ZM86.497 31.472C85.8712 31.638 85.469 31.924 85.2441 32.3629C85.0257 32.7891 85.0081 33.0067 85.0437 34.846C85.0763 36.5284 85.117 36.9141 85.29 37.1768C85.6193 37.6764 86.1594 37.8978 87.004 37.8792C88.2246 37.8523 88.8608 37.3259 88.9904 36.2353C89.0754 35.5216 88.952 35.3065 88.4777 35.3409C88.2959 35.3542 88.0012 35.3692 87.8229 35.3745C87.5205 35.3834 87.4988 35.4181 87.4988 35.8939C87.4988 36.6433 86.9886 37.0525 86.6511 36.5739C86.5339 36.4079 86.5112 35.9266 86.5559 34.562C86.6058 33.046 86.6458 32.7491 86.8142 32.6436C87.1101 32.4583 87.4988 32.8524 87.4988 33.3376C87.4988 33.7183 87.5006 33.7195 88.1613 33.7595C88.7585 33.7957 88.8337 33.7737 88.9244 33.5357C89.1512 32.9411 88.7364 31.9737 88.1324 31.6883C87.7105 31.489 86.8581 31.3762 86.497 31.472ZM101.148 31.5798C100.774 31.6943 100.507 31.8721 100.323 32.129C100.063 32.492 100.051 32.6026 100.051 34.6212C100.051 37.0938 100.122 37.3683 100.859 37.722C101.405 37.9844 102.148 37.9595 102.471 37.6681C102.71 37.4528 102.895 37.4489 102.975 37.6577C103.046 37.8405 103.634 37.8786 103.839 37.7136C104.002 37.5829 104.053 34.8198 103.897 34.5811C103.784 34.4063 102.373 34.2724 102.161 34.4163C102.09 34.4644 102 34.7043 101.961 34.9494C101.899 35.3417 101.925 35.4105 102.179 35.5256C102.676 35.7513 102.482 36.7922 101.942 36.7922C101.63 36.7922 101.49 36.4325 101.496 35.6452C101.517 32.7633 101.513 32.8166 101.751 32.6895C102.107 32.4996 102.331 32.6646 102.436 33.1943L102.532 33.6824L103.221 33.7181L103.91 33.7536L103.859 33.0432C103.796 32.1796 103.427 31.7201 102.639 31.5224C102 31.3623 101.837 31.3687 101.148 31.5798ZM106.474 31.5252C105.928 31.6867 105.438 32.1648 105.28 32.6906C105.072 33.3803 105.197 36.6435 105.449 37.1129C105.735 37.645 106.238 37.8682 107.185 37.8827C107.85 37.893 108.052 37.8472 108.404 37.6077C109.054 37.165 109.126 36.8691 109.126 34.6212C109.126 32.8487 109.1 32.5839 108.895 32.2467C108.502 31.6001 107.366 31.2614 106.474 31.5252ZM47.1916 34.6171C47.1916 37.9517 47.1697 37.8677 48.017 37.7858C48.2436 37.7639 48.4745 37.7426 48.53 37.7385C48.5856 37.7344 48.5965 36.8464 48.5543 35.7654C48.5031 34.4571 48.5163 33.8609 48.5938 33.9823C48.6576 34.0828 48.8647 34.9424 49.0538 35.8923C49.2429 36.8424 49.4281 37.6499 49.4653 37.687C49.5983 37.8194 50.392 37.7918 50.5097 37.6507C50.5755 37.5716 50.7834 36.7616 50.9718 35.8506C51.16 34.9396 51.3642 34.1054 51.4256 33.9969C51.4972 33.8705 51.5123 34.5045 51.4677 35.7654C51.4098 37.4049 51.4258 37.7324 51.5638 37.7395C52.457 37.7853 52.6479 37.7721 52.7432 37.6578C52.8065 37.5819 52.8396 36.2889 52.8214 34.6066L52.7898 31.6874L51.7586 31.6535C51.1915 31.6348 50.7273 31.6612 50.7273 31.7122C50.7273 31.7632 50.6467 32.1745 50.5483 32.6262C50.4498 33.078 50.3165 33.7098 50.2519 34.0303C50.1124 34.7233 49.9397 34.9513 49.8584 34.5502C49.6157 33.3543 49.313 31.7787 49.313 31.711C49.313 31.6658 48.8357 31.6287 48.2523 31.6287H47.1916V34.6171ZM55.1021 32.0688C55.04 32.3109 54.8228 33.2746 54.6196 34.2105C54.4163 35.1463 54.1734 36.2323 54.0798 36.6237C53.8873 37.428 53.8691 37.6923 54.0006 37.7731C54.0507 37.804 54.3821 37.7939 54.7372 37.7507L55.3827 37.6723L55.4416 37.1443L55.5006 36.6162H56.0309H56.5613L56.6887 37.1443L56.8161 37.6723L57.558 37.7077C58.2779 37.7419 58.2983 37.7349 58.2431 37.473C57.5111 33.9969 57.3148 33.1025 57.0763 32.1568L56.9431 31.6287H56.0791H55.215L55.1021 32.0688ZM59.275 31.7412C59.1824 31.8903 59.2227 37.606 59.3168 37.6625C59.357 37.6867 59.655 37.7251 59.9791 37.748L60.5684 37.7897L60.6273 36.3228L60.6863 34.8559L61.1414 36.236C61.3918 36.995 61.6533 37.651 61.7226 37.6936C61.9359 37.8249 62.9982 37.7975 63.1145 37.6578C63.1779 37.5817 63.211 36.2898 63.1929 34.6066L63.1613 31.6874L62.4672 31.6517L61.773 31.6161L61.8315 33.0306C61.8637 33.8087 61.8526 34.4452 61.8067 34.4452C61.7608 34.4452 61.5196 33.8115 61.2707 33.0369L60.818 31.6287H60.0814C59.6764 31.6287 59.3135 31.6793 59.275 31.7412ZM64.4518 31.7776C64.4203 31.8596 64.4087 33.2193 64.4261 34.7994L64.4577 37.6723L65.872 37.7032C67.1161 37.7303 67.3327 37.7057 67.6723 37.4977C67.8845 37.3678 68.1151 37.1163 68.1846 36.9389C68.2578 36.7519 68.3076 35.7899 68.3032 34.6517C68.2943 32.4122 68.2059 32.0968 67.5048 31.8051C66.9515 31.575 64.5383 31.5533 64.4518 31.7776ZM74.7702 34.1577C74.7702 36.9424 74.8115 37.1415 75.4883 37.6214C75.9626 37.9576 77.2228 37.9958 77.804 37.6915C78.5602 37.2954 78.5966 37.1448 78.6382 34.2396L78.6758 31.6171L77.931 31.6522L77.1863 31.6874L77.1544 34.0841C77.1231 36.4201 77.0644 36.7949 76.73 36.7904C76.3026 36.7846 76.2434 36.5835 76.24 35.124C76.2383 34.3311 76.2249 33.2204 76.2106 32.6556L76.1845 31.6287H75.4774H74.7702V34.1577ZM90.2095 34.6799V37.7422L90.9461 37.7073L91.6827 37.6723L91.7164 36.4627L91.75 35.253L92.1879 35.2892L92.6256 35.3253L92.6592 36.5282C92.6777 37.1906 92.7438 37.7354 92.8065 37.7407C92.8691 37.7461 93.1059 37.7506 93.3327 37.7506C93.5596 37.7506 93.8248 37.7461 93.922 37.7407C94.0744 37.7324 94.0988 37.3094 94.0988 34.6799V31.6287H93.3917H92.6845V32.7413C92.6845 33.83 92.6782 33.8555 92.3901 33.9275C91.8215 34.0696 91.7532 33.9533 91.7167 32.7783L91.6827 31.6874L90.9461 31.6524L90.2095 31.6176V34.6799ZM95.3952 34.6799C95.3952 37.3121 95.4195 37.7316 95.572 37.7349C95.6693 37.7371 96.425 37.7409 97.2515 37.7432L98.7542 37.7477L98.7897 37.1576L98.8251 36.5676L97.9057 36.5332L96.9863 36.4988V35.8587V35.2186L97.6029 35.2513C98.5805 35.3029 98.6952 35.2301 98.6952 34.5597V33.9861L97.8408 33.9516L96.9863 33.9171L96.9504 33.4236L96.9143 32.9302L97.7754 32.8955L98.6363 32.8609L98.6719 32.2448L98.7076 31.6287H97.0514H95.3952V34.6799ZM110.384 34.2339C110.418 36.5731 110.446 36.8857 110.646 37.1796C110.992 37.6889 111.494 37.892 112.391 37.8869C113.284 37.8817 113.657 37.7035 114.022 37.1086C114.231 36.7672 114.252 36.5041 114.252 34.1811L114.252 31.6287H113.545H112.838L112.836 33.8877C112.836 35.1301 112.803 36.2639 112.765 36.4069C112.675 36.7407 112.278 36.8714 112.048 36.6428C111.907 36.5025 111.871 36.0132 111.855 34.0784L111.836 31.6874L111.092 31.6522L110.347 31.6171L110.384 34.2339ZM71.876 32.8284C72.0201 33.0333 72.0595 33.4301 72.0595 34.6799C72.0595 35.9297 72.0201 36.3264 71.876 36.5313C71.6614 36.8364 71.4411 36.8641 71.2313 36.6123C71.038 36.3805 71.0555 32.9583 71.2511 32.7236C71.4419 32.4948 71.668 32.5326 71.876 32.8284ZM107.467 32.7519C107.619 32.9031 107.652 33.2514 107.652 34.6799C107.652 36.1084 107.619 36.4567 107.467 36.6078C107.253 36.8208 107.187 36.8296 106.945 36.6775C106.803 36.5885 106.761 36.209 106.731 34.7594C106.699 33.2083 106.721 32.9251 106.887 32.76C107.127 32.5203 107.233 32.5187 107.467 32.7519ZM66.7518 33.0292C66.8189 33.1541 66.8738 33.9097 66.8738 34.7084C66.8738 36.2766 66.7942 36.5299 66.2845 36.5846L65.9899 36.6162L65.9574 34.7092L65.925 32.8022H66.2774C66.5051 32.8022 66.673 32.8825 66.7518 33.0292ZM56.1936 33.7117C56.3461 34.486 56.3998 35.3606 56.2989 35.4228C56.2388 35.4598 56.0693 35.4586 55.9221 35.4204C55.6927 35.3606 55.6657 35.2988 55.7321 34.9859C55.7749 34.7854 55.8405 34.344 55.8779 34.0051C55.9522 33.3336 56.0933 33.2024 56.1936 33.7117ZM80.2703 36.4011C80.227 36.444 80.1917 36.728 80.1917 37.0321C80.1917 37.6503 80.3346 37.8484 80.7809 37.8484C81.0246 37.8484 80.8858 38.1936 80.5452 38.4351C80.1535 38.7129 80.1008 38.8772 80.3706 38.9802C80.6267 39.0781 81.2406 38.7968 81.4434 38.4886C81.541 38.3403 81.621 37.9269 81.6274 37.5384C81.6483 36.2536 81.6853 36.3228 80.9774 36.3228C80.6316 36.3228 80.3134 36.358 80.2703 36.4011ZM115.902 37.0113C115.902 37.4176 115.957 37.7296 116.032 37.7546C116.104 37.7783 116.409 37.7695 116.71 37.735L117.258 37.6723V37.0269V36.3815L116.58 36.3463L115.902 36.3111V37.0113Z" fill="white"/>
</g>
</svg>
