<svg width="127" height="53" viewBox="0 0 127 53" fill="none" xmlns="http://www.w3.org/2000/svg">
<path d="M5.17407 49.2769V3.36508H13.2805V49.2769H5.17407Z" fill="black"/>
<path d="M26.7911 4.17055V3.36508H29.4932C37.1492 4.97602 39.8514 10.2116 39.8514 15.0444C39.8514 24.7101 29.9436 25.9183 26.7911 25.9183C28.9528 24.3073 30.8443 23.9046 30.8443 15.0444C30.8443 6.58697 29.9436 5.7815 26.7911 4.17055Z" fill="black"/>
<path d="M55.6138 3.36508H47.5074L72.2769 49.2769L76.3301 41.625L55.6138 3.36508Z" fill="black"/>
<path d="M80.8336 3.36508H72.7273L97.4968 49.2769L102 41.625L80.8336 3.36508Z" fill="black"/>
<path d="M122.266 3.36508H114.61L118.213 9.80885H119.564L122.266 3.36508Z" fill="black"/>
</svg>
